<?xml version="1.0" encoding="UTF-8" standalone="no"?>
<svg width="203px" height="102px" viewBox="0 0 203 102" version="1.1" xmlns="http://www.w3.org/2000/svg" xmlns:xlink="http://www.w3.org/1999/xlink" xmlns:sketch="http://www.bohemiancoding.com/sketch/ns">
    <!-- Generator: Sketch 3.2.2 (9983) - http://www.bohemiancoding.com/sketch -->
    <title>Chart</title>
    <desc>Created with Sketch.</desc>
    <defs></defs>
    <g id="Tests" stroke="none" stroke-width="1" fill="none" fill-rule="evenodd" sketch:type="MSPage">
        <g id="Tests-/-Results" sketch:type="MSArtboardGroup" transform="translate(-512.000000, -170.000000)">
            <g id="Chart" sketch:type="MSLayerGroup" transform="translate(506.000000, 169.000000)">
                <text id="0" sketch:type="MSTextLayer" font-family="Open Sans" font-size="9" font-weight="normal" fill="#666666">
                    <tspan x="40" y="102">0</tspan>
                </text>
                <text id="100" sketch:type="MSTextLayer" font-family="Open Sans" font-size="9" font-weight="normal" fill="#666666">
                    <tspan x="149" y="102">100</tspan>
                </text>
                <path d="M29.5,98.5 L36.7,98.5" id="Line" stroke="#979797" stroke-linecap="square" sketch:type="MSShapeGroup"></path>
                <path d="M44.1788393,56.801921 L49.6127483,61.5255461" id="Line-3" stroke="#979797" stroke-linecap="square" sketch:type="MSShapeGroup"></path>
                <path d="M80.0720141,31.842319 L82.8852783,38.469954" id="Line-5" stroke="#979797" stroke-linecap="square" sketch:type="MSShapeGroup"></path>
                <path d="M122.686736,31.842319 L125.5,38.469954" id="Line-6" stroke="#979797" stroke-linecap="square" sketch:type="MSShapeGroup" transform="translate(124.093368, 35.156137) scale(-1, 1) translate(-124.093368, -35.156137) "></path>
                <path d="M154,56.6367187 L159.433909,61.3603438" id="Line-4" stroke="#979797" stroke-linecap="square" sketch:type="MSShapeGroup" transform="translate(156.500000, 59.136719) scale(-1, 1) translate(-156.500000, -59.136719) "></path>
                <path d="M167.5,99.5 L174.7,99.5" id="Line-2" stroke="#979797" stroke-linecap="square" sketch:type="MSShapeGroup"></path>
                <text id="20" sketch:type="MSTextLayer" font-family="Open Sans" font-size="9" font-weight="normal" fill="#666666">
                    <tspan x="52" y="69">20</tspan>
                </text>
                <text id="80" sketch:type="MSTextLayer" font-family="Open Sans" font-size="9" font-weight="normal" fill="#666666">
                    <tspan x="142" y="69">80</tspan>
                </text>
                <text id="40" sketch:type="MSTextLayer" font-family="Open Sans" font-size="9" font-weight="normal" fill="#666666">
                    <tspan x="79" y="49">40</tspan>
                </text>
                <text id="60" sketch:type="MSTextLayer" font-family="Open Sans" font-size="9" font-weight="normal" fill="#666666">
                    <tspan x="115" y="49">60</tspan>
                </text>
                <path d="M189.923917,99 C187.356909,52.1726499 148.955472,15 101.959596,15 C54.9637196,15 16.5622825,52.1726499 13.9952752,99 L24.9035574,99 C27.455403,58.2517158 60.979148,26 101.959596,26 C142.940044,26 176.463789,58.2517158 179.015635,99 L189.923917,99 Z" id="Oval-1" fill="#C20800" sketch:type="MSShapeGroup"></path>
                <path d="M181.125225,64.8998464 C166.796022,35.3481919 136.730093,15 101.959596,15 C91.3431501,15 81.1652919,16.8969781 71.7400469,20.3737042 L75.6555799,30.6432037 C83.8652848,27.638399 92.7230388,26 101.959596,26 C132.254677,26 158.474664,43.6255903 171.11931,69.2795829 L181.125225,64.8998464 Z" id="Oval-4" fill="#FF7B00" sketch:type="MSShapeGroup"></path>
                <path d="M74.4215451,19.434115 C40.7476687,30.6180449 16.0369797,61.755224 13.9952752,99 L24.9035574,99 C26.9380281,66.5132427 48.6586997,39.4270309 78.1493191,29.7792124 L74.4215451,19.434115 Z" id="Oval-2" fill="#FFC800" sketch:type="MSShapeGroup"></path>
                <path d="M124.502342,11.2104616 C123.495949,11.170998 122.728997,10.8307113 122.201464,10.1895912 C121.673931,9.5484711 121.432387,8.6612997 121.476825,7.52805038 C121.522424,6.36520127 121.837796,5.4776345 122.422949,4.86532345 C123.008103,4.2530124 123.818665,3.96717331 124.854657,4.00779761 C125.188712,4.02089687 125.521353,4.06993801 125.852589,4.15492249 C126.183825,4.23990697 126.442674,4.33475682 126.629145,4.4394749 L126.270594,5.32112244 C126.041672,5.21897477 125.790989,5.13185638 125.518538,5.05976464 C125.246087,4.9876729 125.004152,4.9474823 124.792725,4.93919163 C123.380391,4.88380994 122.638918,5.75678549 122.568281,7.55814448 C122.534787,8.41231001 122.681397,9.07448102 123.008115,9.54467738 C123.334833,10.0148737 123.836468,10.2632333 124.513035,10.2897634 C125.092345,10.3124799 125.691338,10.2110362 126.310031,9.98542932 L126.27347,10.9178182 C125.798879,11.1406056 125.208509,11.2381525 124.502342,11.2104616 L124.502342,11.2104616 Z M131.096734,12.0679498 C130.647171,12.0138887 130.246457,11.8815229 129.894579,11.6708486 C129.542702,11.4601743 129.261436,11.1674218 129.050775,10.7925823 L128.975148,10.7834879 C128.977063,11.192897 128.956295,11.5782613 128.912844,11.9395922 L128.571048,14.781908 L127.524874,14.6561027 L128.728361,4.64812613 L129.579165,4.75043765 L129.610437,5.71320634 L129.660855,5.71926925 C129.975224,5.37346788 130.321074,5.13801317 130.698413,5.01289806 C131.075752,4.88778295 131.495499,4.85301437 131.957666,4.90859128 C132.873598,5.0187346 133.542854,5.41674947 133.965453,6.1026478 C134.388052,6.78854614 134.531394,7.69658647 134.395483,8.82679602 C134.259067,9.9612071 133.899955,10.8120227 133.318138,11.3792683 C132.73632,11.946514 131.99586,12.1760722 131.096734,12.0679498 L131.096734,12.0679498 Z M131.699554,5.77902013 C130.993698,5.69413904 130.459727,5.8281206 130.097625,6.18096885 C129.735523,6.5338171 129.498992,7.13618148 129.388024,7.98808006 L129.359983,8.22126339 C129.243272,9.19181509 129.321538,9.90555789 129.594783,10.3625132 C129.868028,10.8194685 130.361773,11.0908879 131.076032,11.1767795 C131.672648,11.2485242 132.169112,11.0631479 132.565437,10.620645 C132.961763,10.1781421 133.210952,9.53254661 133.313011,8.68383906 C133.416586,7.82252695 133.326926,7.14151165 133.044028,6.64077275 C132.76113,6.14003384 132.312976,5.85278584 131.699554,5.77902013 L131.699554,5.77902013 Z M138.560056,13.8088079 C137.55745,13.5802597 136.835909,13.0946004 136.395411,12.3518155 C135.954913,11.6090307 135.858345,10.6950894 136.105703,9.60996428 C136.354943,8.51658729 136.822136,7.70945616 137.507294,7.18854668 C138.192453,6.6676372 138.988876,6.51064287 139.896585,6.71755897 C140.746531,6.91130768 141.355331,7.34414038 141.723003,8.01607006 C142.090676,8.68799974 142.170112,9.48193322 141.961315,10.3978943 L141.813183,11.0477283 L137.140567,9.98258603 C136.979675,10.7835972 137.043027,11.43389 137.330624,11.9334839 C137.618222,12.4330778 138.108593,12.7618741 138.801753,12.9198828 C139.532046,13.0863562 140.288876,13.0982882 141.072265,12.9556791 L140.863468,13.8716356 C140.464645,13.9456553 140.095535,13.9797881 139.75613,13.9740348 C139.416724,13.9682816 139.018037,13.9132065 138.560056,13.8088079 L138.560056,13.8088079 Z M139.688108,7.57499387 C139.143482,7.45084421 138.66879,7.52926838 138.264018,7.81026873 C137.859245,8.09126909 137.556502,8.53875113 137.355778,9.15272828 L140.902015,9.96110782 C141.049678,9.31333352 141.018369,8.78427739 140.808086,8.37392354 C140.597804,7.9635697 140.224481,7.69726247 139.688108,7.57499387 L139.688108,7.57499387 Z M147.688559,19.2760904 L146.718452,18.9546553 L147.475122,16.6709873 L142.859582,15.1416753 L142.102912,17.4253434 L141.138831,17.1059049 L142.180999,13.9605889 L142.699193,14.1322871 C143.479716,13.5795424 144.185662,12.8616731 144.817051,11.9786577 C145.44844,11.0956422 145.957158,10.0917539 146.343221,8.96696245 L149.687378,10.0750148 L147.784723,15.8173254 L148.730728,16.1307744 L147.688559,19.2760904 Z M146.820641,15.4978868 L148.461757,10.5449181 L146.979481,10.0537813 C146.631778,10.9282582 146.160915,11.7741719 145.566878,12.5915479 C144.972841,13.4089238 144.362414,14.0369628 143.73558,14.4756835 L146.820641,15.4978868 Z M153.395653,11.9448327 L152.213846,14.6079599 L155.776286,16.1888524 L156.958094,13.5257252 L157.921229,13.9531326 L155.09931,20.3121465 L154.136175,19.8847391 L155.408098,17.0185412 L151.845658,15.4376488 L150.573735,18.3038467 L149.610599,17.8764393 L152.432518,11.5174253 L153.395653,11.9448327 Z M161.221985,16.1912393 L159.011023,20.0088365 L158.393587,20.9862839 L158.195777,21.2898381 L164.424372,18.0459023 L165.561412,18.704419 L162.074773,24.7246874 L161.223366,24.2315951 L163.354797,20.5513216 L163.791199,19.8357965 L164.232225,19.1376198 L158.015486,22.3737509 L156.878446,21.7152342 L160.365085,15.6949658 L161.221985,16.1912393 Z M168.621573,21.2909768 L166.016306,24.8511712 L165.298205,25.757241 L165.069168,26.0379824 L171.608038,23.4764022 L172.668412,24.2523595 L168.559963,29.8667092 L167.765962,29.2856785 L170.277515,25.8535486 L170.787696,25.1886135 L171.300625,24.5414208 L164.774375,27.0965044 L163.714,26.3205472 L167.82245,20.7061974 L168.621573,21.2909768 Z M170.768486,21.7215097 C170.136698,21.2591819 169.76501,20.7997255 169.653413,20.343127 C169.541815,19.8865285 169.673863,19.3657058 170.049559,18.7806433 L170.848682,19.3654227 C170.619514,19.7430818 170.531394,20.0587694 170.584318,20.312495 C170.637242,20.5662206 170.856652,20.8342768 171.242555,21.1166717 C171.594307,21.3740758 171.909681,21.4894966 172.188687,21.4629374 C172.467692,21.4363782 172.748427,21.2695074 173.030902,20.9623202 L173.835147,21.5508481 C173.399313,22.0604406 172.936342,22.3312356 172.44622,22.3632413 C171.956098,22.3952469 171.396859,22.1813385 170.768486,21.7215097 L170.768486,21.7215097 Z" id="средний" fill="#FF7B00" sketch:type="MSShapeGroup" transform="translate(147.653397, 17.265233) rotate(-353.000000) translate(-147.653397, -17.265233) "></path>
                <path d="M179.502971,77.9337527 L178.449298,77.9247729 L178.508587,70.9679943 L184.348218,71.0177617 L184.28893,77.9745403 L183.222563,77.9654524 L183.274061,71.9227031 L179.55447,71.8910034 L179.502971,77.9337527 Z M189.707981,79.0232038 C189.258076,78.9720681 188.856509,78.8423117 188.503268,78.6339308 C188.150028,78.4255498 187.866864,78.1346331 187.653769,77.7611718 L187.578084,77.7525696 C187.582662,78.1619576 187.564402,78.5474487 187.523302,78.9090547 L187.200002,81.7535336 L186.153031,81.6345361 L187.291393,71.6189429 L188.142845,71.7157179 L188.180379,72.6782628 L188.230835,72.6839976 C188.542949,72.3361587 188.887259,72.0984593 189.263776,71.9708923 C189.640294,71.8433253 190.059806,71.8058271 190.522325,71.8583966 C191.438954,71.9625796 192.110784,72.3562327 192.537836,73.0393676 C192.964887,73.7225025 193.114133,74.6295912 192.985577,75.760661 C192.856543,76.8959354 192.502973,77.7490689 191.924858,78.3200872 C191.346742,78.8911054 190.607791,79.1254753 189.707981,79.0232038 L189.707981,79.0232038 Z M190.269879,72.730486 C189.563486,72.6501981 189.030398,72.7876502 188.670599,73.1428464 C188.3108,73.4980426 188.078192,74.1019328 187.972768,74.9545352 L187.946245,75.187896 C187.835849,76.1591863 187.918756,76.8724049 188.194968,77.3275732 C188.47118,77.7827414 188.96668,78.0509434 189.681482,78.132187 C190.278552,78.2000494 190.773799,78.0114476 191.167238,77.5663761 C191.560677,77.1213045 191.805661,76.4741017 191.902198,75.6247483 C192.000168,74.7627806 191.90608,74.082363 191.619931,73.5834749 C191.333781,73.0845867 190.883769,72.8002599 190.269879,72.730486 L190.269879,72.730486 Z M200.942618,77.8460317 C200.697999,78.9534568 200.228089,79.7564928 199.532874,80.2551639 C198.837659,80.753835 197.998334,80.8945502 197.014875,80.6773137 C196.407444,80.5431382 195.899692,80.2814668 195.491603,79.8922917 C195.083515,79.5031166 194.81025,79.0137151 194.6718,78.4240725 C194.533351,77.8344299 194.54308,77.1821845 194.700987,76.4673169 C194.945606,75.3598919 195.412994,74.5584655 196.103164,74.0630138 C196.793334,73.5675621 197.630136,73.4284566 198.613595,73.6456932 C199.563997,73.8556276 200.249317,74.338539 200.669576,75.0944418 C201.089835,75.8503445 201.180848,76.767532 200.942618,77.8460317 L200.942618,77.8460317 Z M195.767085,76.7028074 C195.575405,77.5705658 195.602915,78.2700404 195.849615,78.8012523 C196.096315,79.3324641 196.556431,79.6724547 197.229977,79.8212344 C197.903523,79.970014 198.464846,79.8567326 198.913962,79.4813866 C199.363079,79.1060407 199.683928,78.4824318 199.87652,77.6105412 C200.067287,76.746915 200.037603,76.0523773 199.787468,75.5269074 C199.537332,75.0014375 199.071367,74.663405 198.389557,74.5127998 C197.716011,74.3640202 197.158928,74.472821 196.718292,74.8392056 C196.277655,75.2055903 195.96059,75.8267846 195.767085,76.7028074 L195.767085,76.7028074 Z M210.041558,81.1963888 C209.709308,82.1963526 209.160658,82.8980937 208.395591,83.301633 C207.630523,83.7051723 206.723971,83.7796471 205.675906,83.5250597 L204.723194,86.3924116 L203.735283,86.0641662 L204.687995,83.1968143 C203.7174,82.7895961 203.043708,82.1867218 202.666901,81.3881734 C202.290093,80.589625 202.264479,79.700422 202.590058,78.7205377 C202.922308,77.7205739 203.47464,77.0211711 204.247073,76.6223084 C205.019505,76.2234457 205.93108,76.1539843 206.981826,76.413922 L207.87049,73.7393332 L208.822259,74.0555696 L207.933594,76.7301584 C208.9109,77.1574433 209.586606,77.7676757 209.960732,78.5608738 C210.334857,79.354072 210.361799,80.2325682 210.041558,81.1963888 L210.041558,81.1963888 Z M203.638207,79.0687981 C203.382015,79.8398546 203.357898,80.5029513 203.565856,81.0581082 C203.773814,81.6132651 204.251305,82.0550766 204.998343,82.383556 L206.703618,77.251237 C205.937989,77.0726551 205.302404,77.1301412 204.796844,77.423697 C204.291283,77.7172527 203.905075,78.2656143 203.638207,79.0687981 L203.638207,79.0687981 Z M209.005456,80.8521314 C209.516508,79.3140343 209.065154,78.2231752 207.651383,77.5795211 L205.950111,82.6997924 C206.738488,82.8770141 207.381085,82.8051357 207.877921,82.484155 C208.374756,82.1631744 208.750598,81.6191719 209.005456,80.8521314 L209.005456,80.8521314 Z M214.321363,79.8819607 L212.431202,83.8681485 L211.896076,84.8929759 L211.72385,85.2117417 L217.665172,81.4675199 L218.852426,82.0304886 L215.871683,88.3166208 L214.982677,87.8950742 L216.804846,84.0522744 L217.181047,83.3033444 L217.56328,82.5713249 L211.633132,86.3067953 L210.445879,85.7438266 L213.426622,79.4576944 L214.321363,79.8819607 Z" id="средний" fill="#C20800" sketch:type="MSShapeGroup" transform="translate(198.650862, 79.881637) rotate(-297.000000) translate(-198.650862, -79.881637) "></path>
                <path d="M7.1533915,66.8479685 L9.93971693,67.6996171 L11.0789593,63.9723756 L8.29263387,63.120727 L8.60063751,62.1130364 L15.2538241,64.1466025 L14.9458205,65.1542932 L11.9470302,64.2377041 L10.8077878,67.9649455 L13.8065781,68.8815346 L13.4985745,69.8892253 L6.84538786,67.8556591 L7.1533915,66.8479685 Z M15.5731134,55.304274 C16.616681,55.7483409 17.3196256,56.3578908 17.6819685,57.1329419 C18.0443113,57.907993 18.028304,58.758881 17.6339461,59.6856313 C17.3903721,60.2580359 17.0398034,60.7090189 16.5822295,61.0385939 C16.1246557,61.3681688 15.5933536,61.5467905 14.9883075,61.5744642 C14.3832613,61.6021379 13.7439247,61.4726491 13.0702785,61.185994 C12.0267109,60.741927 11.3248847,60.1351526 10.9647787,59.3656523 C10.6046728,58.5961521 10.6217986,57.7480395 11.0161565,56.8212892 C11.3972588,55.9256902 11.9979444,55.340845 12.8182313,55.0667362 C13.6385183,54.7926273 14.5568031,54.8718058 15.5731134,55.304274 L15.5731134,55.304274 Z M13.4977736,60.1813705 C14.3154945,60.5293334 15.0081021,60.6309023 15.5756172,60.4860802 C16.1431324,60.3412582 16.5619264,59.9514994 16.8320119,59.3167922 C17.1020974,58.6820851 17.0939555,58.1095036 16.8075862,57.5990305 C16.5212168,57.0885574 15.967233,56.6585173 15.1456182,56.3088975 C14.3317913,55.9625915 13.6436367,55.8640673 13.081134,56.0133218 C12.5186312,56.1625762 12.1006864,56.558445 11.827287,57.20094 C11.5572015,57.8356471 11.5617187,58.4032371 11.8408388,58.9037269 C12.1199588,59.4042167 12.6722649,59.8300937 13.4977736,60.1813705 L13.4977736,60.1813705 Z M18.1243712,47.7165818 C18.5210597,47.9349111 18.7595357,48.2146959 18.8398063,48.5559447 C18.9200769,48.8971934 18.8821873,49.2929552 18.7261361,49.7432419 L18.7761854,49.770788 C19.1322899,49.2905251 19.4929237,48.99511 19.8580976,48.8845337 C20.2232716,48.7739575 20.6116117,48.831914 21.0231296,49.0584052 C21.5903571,49.3705957 21.9130458,49.8199028 21.9912056,50.40634 C22.0693654,50.9927773 21.8880782,51.6863813 21.4473387,52.487173 L19.9690323,55.1731482 L13.8741485,51.8186475 L15.3463335,49.1437943 C16.1788415,47.6311878 17.1048448,47.1554551 18.1243712,47.7165818 L18.1243712,47.7165818 Z M20.4538862,49.947868 C20.1239304,49.766267 19.8150173,49.7592709 19.5271378,49.9268797 C19.2392582,50.0944884 18.9361671,50.4674619 18.6178552,51.0458115 L17.6965918,52.7196801 L19.7041219,53.8245841 L20.6376281,52.1284713 C21.2232403,51.0644565 21.1619936,50.337596 20.4538862,49.947868 L20.4538862,49.947868 Z M17.7175182,48.6664387 C17.4209287,48.5032019 17.1477954,48.5014073 16.8981102,48.6610551 C16.648425,48.8207028 16.3960574,49.1322326 16.1409998,49.5956537 L15.1830083,51.3362546 L16.9013651,52.2820035 L17.7614151,50.7193553 C18.075646,50.1484205 18.2265937,49.7074089 18.2142627,49.3963071 C18.2019318,49.0852054 18.0363519,48.8419184 17.7175182,48.6664387 L17.7175182,48.6664387 Z M18.7281374,44.2001469 L22.3750145,46.6826231 L23.3050207,47.3694415 L23.5934014,47.5887822 L20.8105599,41.140968 L21.5499449,40.0547758 L27.3009914,43.9695872 L26.7473456,44.7829195 L23.2316511,42.389741 L22.5497226,41.9025072 L21.8854324,41.4119226 L24.6613512,47.8473457 L23.9219662,48.9335379 L18.1709197,45.0187265 L18.7281374,44.2001469 Z M24.2846858,37.2550445 L26.2220308,38.8962431 C26.8419843,39.4214293 27.4514721,39.3304565 28.0505126,38.623322 C28.299429,38.3294899 28.4921961,38.0102835 28.6288198,37.6656931 C28.7654436,37.3211027 28.8691905,36.8876614 28.9400638,36.3653563 L26.6685268,34.4410509 L27.3496242,33.6370528 L32.6579494,38.1339369 L31.976852,38.9379351 L29.5745442,36.9028488 C29.5198156,37.4388307 29.4176728,37.8916555 29.2681127,38.261337 C29.1185526,38.6310184 28.8892291,38.9982878 28.5801351,39.3631562 C28.1315386,39.8926998 27.6412104,40.1899924 27.1091358,40.2550427 C26.5770613,40.320093 26.0737056,40.1515729 25.5990537,39.7494772 L23.6035884,38.0590426 L24.2846858,37.2550445 Z M36.3977395,30.0894874 C37.1845186,30.9063151 37.5930858,31.7422308 37.6234534,32.5972597 C37.6538211,33.4522886 37.3063142,34.2291447 36.5809225,34.9278516 C36.1328865,35.3594058 35.6338645,35.6373647 35.0838417,35.7617368 C34.5338189,35.8861088 33.9749767,35.8427163 33.4072983,35.6315579 C32.8396198,35.4203994 32.3018469,35.0511855 31.7939634,34.5239049 C31.0071843,33.7070773 30.598561,32.8741533 30.5680813,32.0251081 C30.5376015,31.1760628 30.8850523,30.4021984 31.610444,29.7034916 C32.3114528,29.0282707 33.0930226,28.7249298 33.9551769,28.7934599 C34.8173312,28.86199 35.6315106,29.2939949 36.3977395,30.0894874 L36.3977395,30.0894874 Z M32.5803085,33.7664871 C33.1968145,34.4065386 33.7945347,34.7708902 34.373487,34.8595529 C34.9524393,34.9482155 35.4903084,34.7532867 35.9871103,34.2747607 C36.4839122,33.7962346 36.7003502,33.2660738 36.6364309,32.6842623 C36.5725116,32.1024509 36.2308362,31.4900047 35.6113944,30.8469053 C34.9978241,30.2099017 34.4030116,29.8500938 33.826939,29.7674707 C33.2508663,29.6848477 32.7113893,29.885732 32.2084917,30.3701296 C31.7116898,30.8486557 31.493868,31.3728049 31.5550197,31.9425931 C31.6161715,32.5123812 31.957931,33.1203398 32.5803085,33.7664871 L32.5803085,33.7664871 Z M39.3705177,23.7244978 L40.2789766,23.0108038 L39.9923999,27.5061446 L44.7714958,28.3285891 L43.8031385,29.0893398 L39.1309977,28.279737 L41.3073722,31.0500375 L40.4787778,31.7009892 L36.1809284,26.2302695 L37.0095228,25.5793178 L39.0996265,28.2398047 L39.3705177,23.7244978 Z" id="новичок" fill="#FFC800" sketch:type="MSShapeGroup"></path>
                <circle id="Oval-3" fill="#D8D8D8" sketch:type="MSShapeGroup" cx="102" cy="99" r="4"></circle>
            </g>
        </g>
    </g>
</svg>