<svg width="171" height="60" viewBox="0 0 171 60" xmlns="http://www.w3.org/2000/svg" xmlns:xlink="http://www.w3.org/1999/xlink"><style>a { cursor: pointer; }</style><a xlink:href="/" target="_top"><g id="Logo" fill="none" fill-rule="evenodd"><g id="Logo-Header-Beta"><g id="BODY"><text id="β" opacity=".5" font-family="Open Sans" font-size="11" fill="#333" transform="translate(1 11)"><tspan x="163" y="12">β</tspan></text><g id="LIGHTHOUSE" fill="#BE1622"><g id="Layer_2"><path d="M41.487 31.932l.714 1.446 5.395-2.662-.713-1.446-5.393 2.662zM42.67 28.1l3.746 1.85.714-1.446-3.746-1.85-.714 1.447z" id="Shape"/><path d="M41.126 33.49l7.486 2.18.45-1.546-7.484-2.183-.452 1.55z" id="Shape"/></g><path d="M44.968 16.694c-1.73 0-3.13 1.402-3.13 3.13 0 1.73 1.4 3.13 3.13 3.13 1.728 0 3.13-1.4 3.13-3.13 0-1.728-1.402-3.13-3.13-3.13zm0 4.113c-.543 0-.983-.44-.983-.983 0-.543.44-.982.983-.982.543 0 .982.44.982.982 0 .543-.44.983-.982.983z" id="Shape"/><path d="M46.87 22.393c-.19-.593-.864-1.073-1.5-1.073h-.743c-.637 0-1.307.483-1.496 1.073l-4.68 14.625c-.19.594.17 1.074.815 1.074h.923c.32 0 .648-.24.737-.545l2.395-8.186c.572-1.944.963-3.583 1.588-5.504h.105c.6 1.92.99 3.56 1.563 5.506l2.42 8.187c.088.3.416.544.733.544h1.033c.638 0 1-.483.81-1.074l-4.705-14.625z" id="V_1_"/></g><g id="TEXT_EXPANDED" fill="#3C3C3B"><g id="Group"><path d="M2.837 32.93c.793.98 1.69 1.5 2.586 1.5 1.398 0 2.107-.604 2.107-2.48v-6.156H2.21v-2.566h8.387v8.97c0 2.67-1.315 4.882-5.07 4.882-1.5 0-3.274-.585-4.463-2.254l1.773-1.897zm17.777.666h-4.11l-.834 3.233h-3.13l4.235-13.603h3.67l4.237 13.6h-3.255l-.813-3.232zm-.627-2.4l-.313-1.25c-.355-1.357-.73-2.963-1.085-4.382h-.085c-.334 1.44-.71 3.026-1.064 4.38l-.313 1.253h2.86zm5.2-7.968h3.253l1.628 6.342c.418 1.48.688 2.858 1.084 4.36h.084c.417-1.5.708-2.88 1.105-4.36l1.608-6.342h3.13l-4.09 13.6h-3.692l-4.11-13.6z" id="Shape"/></g><g id="Group"><path d="M55.728 33.013c1.022.834 2.294 1.418 3.484 1.418 1.418 0 2.044-.5 2.044-1.312 0-.855-.793-1.127-2.107-1.627l-1.755-.75c-1.522-.564-2.9-1.732-2.9-3.713 0-2.253 2.044-4.047 4.986-4.047 1.65 0 3.297.625 4.528 1.793l-1.565 1.94c-.94-.69-1.793-1.085-2.962-1.085-1.19 0-1.88.46-1.88 1.23 0 .834.92 1.127 2.234 1.606l1.65.71c1.793.668 2.92 1.773 2.92 3.693 0 2.254-1.9 4.214-5.28 4.214-1.834 0-3.712-.666-5.172-1.96l1.774-2.106zm17.34-10.035c1.73 0 3.107.834 4.026 1.732l-1.69 1.898c-.646-.584-1.356-.98-2.336-.98-1.92 0-3.338 1.648-3.338 4.38 0 2.796 1.418 4.423 3.462 4.423.98 0 1.753-.477 2.42-1.21l1.69 1.86c-1.126 1.312-2.587 2-4.297 2-3.505 0-6.425-2.4-6.425-6.967-.002-4.504 2.856-7.134 6.487-7.134zM86.692 36.83l-2.608-4.902H82.48v4.902h-3.07V23.228h4.82c2.877 0 5.256 1.002 5.256 4.235 0 2.002-.98 3.276-2.42 3.922l3.067 5.444H86.69zm-4.214-7.342h1.5c1.627 0 2.482-.69 2.482-2.024s-.856-1.793-2.482-1.793h-1.5v3.82zm9.535 4.755h3.17v-8.428h-3.17v-2.587h9.43v2.587h-3.172v8.428h3.17v2.587h-9.428v-2.587zm12.52-11.015h4.964c2.94 0 5.32 1.085 5.32 4.38 0 3.194-2.443 4.612-5.32 4.612h-1.9v4.61h-3.067V23.228zm4.777 6.55c1.69 0 2.48-.75 2.48-2.168 0-1.418-.854-1.94-2.48-1.94h-1.71v4.11h1.71zm10.913-3.963h-4.068v-2.587h11.223v2.587h-4.068V36.83h-3.088V25.814z" id="Shape"/></g><g id="Group"><path d="M132.135 33.248c1.107 0 1.862.836 1.862 1.895 0 1.06-.755 1.88-1.862 1.88-1.11 0-1.863-.82-1.863-1.88s.754-1.895 1.863-1.895zm13.558 3.582l-2.607-4.903h-1.606v4.903h-3.067V23.228h4.82c2.877 0 5.256 1 5.256 4.235 0 2.002-.98 3.276-2.42 3.922l3.064 5.444h-3.442zm-4.214-7.343h1.5c1.627 0 2.483-.688 2.483-2.023 0-1.335-.856-1.794-2.483-1.794h-1.5v3.817zm9.326-6.26h3.067v8.68c0 1.628.605 2.523 1.898 2.523 1.296 0 1.92-.896 1.92-2.523v-8.68h2.963v8.366c0 3.527-1.585 5.487-4.88 5.487-3.317 0-4.966-1.96-4.966-5.487v-8.365z" id="Shape"/></g></g></g><g id="FLASHES" fill="#BE1622"><path d="M51.502 18.994l-.545-.39 2.488-.962-.422-.596 5.555-.482.043.13-2.26.89.262.486-2.996.735.46.578-4.145.56-.057-.113 1.62-.836" id="flash4"><animate attributeName="opacity" from="1" to="0" dur="1s" begin="overlay.mouseover" end="overlay.mouseout" repeatCount="indefinite"/><animateMotion from="0,0" to="10,-6" dur="1s" begin="overlay.mouseover" end="overlay.mouseout" repeatCount="indefinite"/></path><path d="M51.297 13.088l.456.367-3.898 2.74-.09-.094 1.39-1.893-.726.043 1.545-1.78-.4-.486 4.782-3.617.092.094-1.86 2.555.586-.002-1.88 2.076" id="flash3"><animate attributeName="opacity" from="1" to="0" dur="1s" begin="overlay.mouseover" end="overlay.mouseout" repeatCount="indefinite"/><animateMotion from="0,0" to="10,-10" dur="1s" begin="overlay.mouseover" end="overlay.mouseout" repeatCount="indefinite"/></path><path d="M38.713 13.088l-.456.367 3.898 2.74.09-.094-1.39-1.893.726.043-1.545-1.78.4-.486-4.783-3.617-.09.094 1.86 2.555-.587-.002 1.88 2.076" id="flash2"><animate attributeName="opacity" from="1" to="0" dur="1s" begin="overlay.mouseover" end="overlay.mouseout" repeatCount="indefinite"/><animateMotion from="0,0" to="-10,-10" dur="1s" begin="overlay.mouseover" end="overlay.mouseout" repeatCount="indefinite"/></path><path d="M38.51 18.994l.544-.39-2.488-.962.422-.596-5.555-.482-.043.13 2.263.89-.263.486 2.997.735-.46.578 4.145.56.057-.113-1.62-.836" id="flash1"><animate attributeName="opacity" from="1" to="0" dur="1s" begin="overlay.mouseover" end="overlay.mouseout" repeatCount="indefinite"/><animateMotion from="0,0" to="-10,-6" dur="1s" begin="overlay.mouseover" end="overlay.mouseout" repeatCount="indefinite"/></path></g></g></g><path id="overlay" pointer-events="all" fill="none" d="M0 0h171v60H0z"/></a></svg>