<?xml version="1.0" encoding="UTF-8" standalone="no"?>
<svg width="185px" height="60px" viewBox="0 0 185 60" version="1.1" xmlns="http://www.w3.org/2000/svg" xmlns:xlink="http://www.w3.org/1999/xlink" xmlns:sketch="http://www.bohemiancoding.com/sketch/ns">

    <style>
        a {
            cursor: pointer;
        }
    </style>
        <a xlink:href="/" target="_top">

    <g id="Logo" stroke="none" stroke-width="1" fill="none" fill-rule="evenodd" sketch:type="MSPage">
        <g id="JSR_Eng" sketch:type="MSArtboardGroup" transform="translate(-32.000000, -9.000000)">
            <g id="BODY-+-FLASHES" sketch:type="MSLayerGroup" transform="translate(32.000000, 17.000000)">
                <g id="BODY" transform="translate(0.000000, 8.000000)" sketch:type="MSShapeGroup">
                    <g id="LIGHTHOUSE" transform="translate(36.809886, 0.000000)" fill="#BE1622">
                        <g id="Layer_2" transform="translate(2.733840, 10.250951)">
                            <path d="M0.943330798,5.68139924 L1.65688213,7.1269962 L7.05046388,4.46479087 L6.33691255,3.01919392 L0.943330798,5.68139924 L0.943330798,5.68139924 Z" id="Shape"></path>
                            <path d="M2.1261749,1.849673 L5.87230418,3.69910266 L6.58628137,2.25295817 L2.84015209,0.403528517 L2.1261749,1.849673 L2.1261749,1.849673 Z" id="Shape"></path>
                            <path d="M0.582448669,7.23796198 L8.06801521,9.42047148 L8.51923954,7.87279087 L1.03373384,5.69028137 L0.582448669,7.23796198 L0.582448669,7.23796198 Z" id="Shape"></path>
                        </g>
                        <path d="M7.15787072,0.694144487 C5.42889734,0.694144487 4.0278327,2.09581749 4.0278327,3.82418251 C4.0278327,5.55315589 5.42889734,6.95422053 7.15787072,6.95422053 C8.88623574,6.95422053 10.2879087,5.55315589 10.2879087,3.82418251 C10.2873004,2.09581749 8.88623574,0.694144487 7.15787072,0.694144487 L7.15787072,0.694144487 Z M7.15787072,4.80669202 C6.61520913,4.80669202 6.17475285,4.36745247 6.17475285,3.82418251 C6.17475285,3.28091255 6.61581749,2.841673 7.15787072,2.841673 C7.70114068,2.841673 8.14038023,3.28152091 8.14038023,3.82418251 C8.14038023,4.36745247 7.70053232,4.80669202 7.15787072,4.80669202 L7.15787072,4.80669202 Z" id="Shape"></path>
                        <path d="M9.05901141,6.39330798 C8.86920152,5.79954373 8.19574144,5.31954373 7.56060837,5.31954373 L6.81718631,5.31954373 C6.18022814,5.31954373 5.50980989,5.80319392 5.32060837,6.39330798 L0.639239544,21.018403 C0.449429658,21.6121673 0.808365019,22.0921673 1.45444867,22.0921673 L2.3773384,22.0921673 C2.69551331,22.0921673 3.02463878,21.8506464 3.11406844,21.5470722 L5.50859316,13.3609125 C6.081673,11.4153612 6.47346008,9.77642586 7.09825095,7.85520913 L7.20288973,7.85520913 C7.80152091,9.77581749 8.19269962,11.4141445 8.76638783,13.3609125 L11.1852471,21.5470722 C11.2740684,21.8488213 11.6019772,22.0921673 11.9189354,22.0921673 L12.9537643,22.0921673 C13.5919392,22.0921673 13.9539163,21.6085171 13.7628897,21.018403 L9.05901141,6.39330798 L9.05901141,6.39330798 Z" id="V_1_"></path>
                    </g>
                    <g id="TEXT_EXPANDED" transform="translate(0.000000, 6.600760)" fill="#3C3C3B">
                        <g id="Group" transform="translate(0.000000, 0.608365)">
                            <path d="M1.83665399,9.71984791 C2.62996198,10.699924 3.52669202,11.2219011 4.42342205,11.2219011 C5.82144487,11.2219011 6.53019011,10.6171863 6.53019011,8.73977186 L6.53019011,2.58494297 L1.21064639,2.58494297 L1.21064639,0.0188593156 L9.59695817,0.0188593156 L9.59695817,8.98920152 C9.59695817,11.6593156 8.28228137,13.8707224 4.52806084,13.8707224 C3.0260076,13.8707224 1.25262357,13.2860837 0.063878327,11.6173384 L1.83665399,9.71984791 L1.83665399,9.71984791 Z" id="Shape"></path>
                            <path d="M19.6136882,10.386616 L15.5035741,10.386616 L14.6695057,13.620076 L11.540076,13.620076 L15.7749049,0.0188593156 L19.4463878,0.0188593156 L23.6818251,13.620076 L20.4270722,13.620076 L19.6136882,10.386616 L19.6136882,10.386616 Z M18.9870722,7.9878327 L18.6737643,6.73642586 C18.3190875,5.38038023 17.9443346,3.77429658 17.5890494,2.35498099 L17.5057034,2.35498099 C17.171711,3.79498099 16.7963498,5.38098859 16.441673,6.73642586 L16.128365,7.9878327 L18.9870722,7.9878327 L18.9870722,7.9878327 Z" id="Shape"></path>
                            <path d="M24.1855513,0.0188593156 L27.4396958,0.0188593156 L29.0676806,6.36106464 C29.4856274,7.84243346 29.7563498,9.2191635 30.1523954,10.7218251 L30.2357414,10.7218251 C30.6530798,9.21977186 30.9444867,7.84243346 31.3405323,6.36106464 L32.946616,0.0188593156 L36.0760456,0.0188593156 L31.9878327,13.620076 L28.295057,13.620076 L24.1855513,0.0188593156 L24.1855513,0.0188593156 Z" id="Shape"></path>
                        </g>
                        <g id="Group" transform="translate(52.927757, 0.000000)">
                            <path d="M1.79954373,10.4121673 C2.82220532,11.2462357 4.09368821,11.8302662 5.28365019,11.8302662 C6.70235741,11.8302662 7.32775665,11.3301901 7.32775665,10.5161977 C7.32775665,9.6608365 6.53505703,9.38889734 5.22098859,8.88882129 L3.46828897,8.13809886 C1.94555133,7.57414449 0.568212928,6.40608365 0.568212928,4.42463878 C0.568212928,2.17186312 2.61231939,0.378403042 5.55437262,0.378403042 C7.2018251,0.378403042 8.84988593,1.00380228 10.0812167,2.17247148 L8.51711027,4.1113308 C7.57779468,3.42326996 6.72365019,3.02661597 5.55498099,3.02661597 C4.36562738,3.02661597 3.67634981,3.48593156 3.67634981,4.25673004 C3.67634981,5.09140684 4.59498099,5.38403042 5.90844106,5.86342205 L7.55711027,6.5739924 C9.35117871,7.24076046 10.4772624,8.3461597 10.4772624,10.2661597 C10.4772624,12.5195437 8.5791635,14.4803042 5.19908745,14.4803042 C3.36365019,14.4803042 1.48562738,13.811711 0.0261596958,12.5195437 L1.79954373,10.4121673 L1.79954373,10.4121673 Z" id="Shape"></path>
                            <path d="M19.1385551,0.377186312 C20.869962,0.377186312 22.2473004,1.21125475 23.1659316,2.10859316 L21.4758935,4.00730038 C20.8298099,3.42326996 20.1198479,3.02661597 19.1397719,3.02661597 C17.2203802,3.02661597 15.801673,4.67467681 15.801673,7.40684411 C15.801673,10.2034981 17.2203802,11.8302662 19.2644867,11.8302662 C20.2451711,11.8302662 21.0171863,11.3508745 21.6845627,10.6202281 L23.3746008,12.4769582 C22.2479087,13.7904183 20.7872243,14.4790875 19.0771103,14.4790875 C15.5723194,14.4790875 12.6515589,12.0803042 12.6515589,7.51148289 C12.6503422,3.00653992 15.5084411,0.377186312 19.1385551,0.377186312 L19.1385551,0.377186312 Z" id="Shape"></path>
                            <path d="M32.7647148,14.2290494 L30.156654,9.32684411 L28.5511787,9.32684411 L28.5511787,14.2290494 L25.4838023,14.2290494 L25.4838023,0.627224335 L30.30327,0.627224335 C33.1814449,0.627224335 35.5601521,1.62859316 35.5601521,4.86205323 C35.5601521,6.86418251 34.580076,8.13809886 33.140076,8.78418251 L36.2068441,14.2284411 L32.7647148,14.2284411 L32.7647148,14.2290494 L32.7647148,14.2290494 Z M28.5505703,6.88669202 L30.0526236,6.88669202 C31.68,6.88669202 32.5347529,6.19802281 32.5347529,4.86326996 C32.5347529,3.52851711 31.6793916,3.06980989 30.0526236,3.06980989 L28.5505703,3.06980989 L28.5505703,6.88669202 L28.5505703,6.88669202 Z" id="Shape"></path>
                            <path d="M38.0873004,11.641673 L41.2574905,11.641673 L41.2574905,3.2139924 L38.0873004,3.2139924 L38.0873004,0.627224335 L47.5163498,0.627224335 L47.5163498,3.2139924 L44.344943,3.2139924 L44.344943,11.641673 L47.5163498,11.641673 L47.5163498,14.2290494 L38.0873004,14.2290494 L38.0873004,11.641673 L38.0873004,11.641673 Z" id="Shape"></path>
                            <path d="M50.6068441,0.627224335 L55.5711027,0.627224335 C58.5125475,0.627224335 60.8906464,1.71193916 60.8906464,5.00806084 C60.8906464,8.20076046 58.4504943,9.61885932 55.5711027,9.61885932 L53.6736122,9.61885932 L53.6736122,14.2290494 L50.6068441,14.2290494 L50.6068441,0.627224335 L50.6068441,0.627224335 Z M55.3837262,7.17809886 C57.0725475,7.17809886 57.8652471,6.42676806 57.8652471,5.0086692 C57.8652471,3.59057034 57.0098859,3.06920152 55.3837262,3.06920152 L53.6730038,3.06920152 L53.6730038,7.17870722 L55.3837262,7.17809886 L55.3837262,7.17809886 Z" id="Shape"></path>
                            <path d="M66.2965779,3.2139924 L62.2290494,3.2139924 L62.2290494,0.627224335 L73.4515589,0.627224335 L73.4515589,3.2139924 L69.3840304,3.2139924 L69.3840304,14.2284411 L66.2959696,14.2284411 L66.2959696,3.2139924 L66.2965779,3.2139924 L66.2965779,3.2139924 Z" id="Shape"></path>
                        </g>
                        <g id="Group" transform="translate(128.973384, 0.608365)">
                            <path d="M2.16152091,10.0392395 C3.26874525,10.0392395 4.0243346,10.8745247 4.0243346,11.9342966 C4.0243346,12.9940684 3.26935361,13.8141445 2.16152091,13.8141445 C1.05307985,13.8141445 0.298707224,12.9940684 0.298707224,11.9342966 C0.298707224,10.8745247 1.05307985,10.0392395 2.16152091,10.0392395 L2.16152091,10.0392395 Z" id="Shape"></path>
                            <path d="M8.43661963,13.6250165 L17.6972708,13.6250165 L17.6972708,11.0844838 L14.5830695,11.0844838 L14.5830695,2.80726468 L17.6972708,2.80726468 L17.6972708,0.266732062 L8.43661963,0.266732062 L8.43661963,2.80726468 L11.5508209,2.80726468 L11.5508209,11.0844838 L8.43661963,11.0844838 L8.43661963,13.6250165 Z" id="INFO"></path>
                            <path d="M20.9753774,13.6250165 L23.8642088,13.6250165 L23.8642088,8.89225005 C23.8642088,7.31466125 23.5773745,5.53219079 23.4339573,4.05704282 L23.51591,4.05704282 L24.6632473,6.96636242 L27.4906142,13.6250165 L30.5638392,13.6250165 L30.5638392,0.266732062 L27.6750077,0.266732062 L27.6750077,4.99949846 C27.6750077,6.5565991 27.9618421,8.44151039 28.1052592,9.85519386 L28.0233066,9.85519386 L26.8759693,6.92538609 L24.0486023,0.266732062 L20.9753774,0.266732062 L20.9753774,13.6250165 Z" id="Path"></path>
                            <path d="M34.5385434,13.6250165 L37.5503039,13.6250165 L37.5503039,8.44151039 L42.4879519,8.44151039 L42.4879519,5.90097778 L37.5503039,5.90097778 L37.5503039,2.80726468 L43.3484549,2.80726468 L43.3484549,0.266732062 L34.5385434,0.266732062 L34.5385434,13.6250165 Z" id="Path"></path>
                            <path d="M50.1749344,13.8708744 C53.3506002,13.8708744 55.542834,11.2483892 55.542834,6.88440976 C55.542834,2.54091852 53.3506002,0.020874067 50.1749344,0.020874067 C46.9992687,0.020874067 44.8070349,2.52043035 44.8070349,6.88440976 C44.8070349,11.2483892 46.9992687,13.8708744 50.1749344,13.8708744 Z M50.1749344,11.2688773 C48.7817391,11.2688773 47.900748,9.56835954 47.900748,6.88440976 C47.900748,4.22094815 48.7817391,2.62287118 50.1749344,2.62287118 C51.5681297,2.62287118 52.4491209,4.22094815 52.4491209,6.88440976 C52.4491209,9.56835954 51.5681297,11.2688773 50.1749344,11.2688773 Z" id="Path"></path>
                        </g>
                    </g>
                </g>
                <g id="FLASHES" transform="translate(29.809886, 0.000000)" fill="#BE1622" sketch:type="MSShapeGroup">
                <path d="M20.6923194,10.9943726 L20.1472243,10.6038023 L22.6348289,9.64197719 L22.2132319,9.04577947 L27.7682129,8.56395437 L27.8107985,8.69475285 L25.548289,9.58479087 L25.8111027,10.0702662 L22.8136882,10.8051711 L23.2742205,11.3825095 L19.1288213,11.9440304 L19.071635,11.8296578 L20.6923194,10.9943726" id="flash4" sketch:type="MSShapeGroup">
                  <animate attributeName="opacity" from="1" to="0" dur="1s" begin="overlay.mouseover" end="overlay.mouseout" repeatCount="indefinite" />
                                    <animateMotion from="0,0" to="10,-6" dur="1s" begin="overlay.mouseover" end="overlay.mouseout" repeatCount="indefinite" />

                </path>
                <path d="M20.4873004,5.08775665 L20.9435741,5.45460076 L17.0451711,8.19528517 L16.9539163,8.10098859 L18.3440304,6.20593156 L17.6188593,6.24851711 L19.1659316,4.47087452 L18.7668441,3.98418251 L23.5485932,0.366844106 L23.6398479,0.460532319 L21.7812928,3.01444867 L22.3671483,3.01201521 L20.4873004,5.08775665" id="flash3" sketch:type="MSShapeGroup">
                  <animate attributeName="opacity" from="1" to="0" dur="1s" begin="overlay.mouseover" end="overlay.mouseout" repeatCount="indefinite" />
        <animateMotion from="0,0" to="10,-10" dur="1s" begin="overlay.mouseover" end="overlay.mouseout" repeatCount="indefinite" />
                </path>
                <path d="M7.9026616,5.08775665 L7.4469962,5.45460076 L11.3447909,8.19528517 L11.4360456,8.10098859 L10.0459316,6.20593156 L10.7711027,6.24851711 L9.22403042,4.47087452 L9.62311787,3.98418251 L4.84136882,0.366844106 L4.75011407,0.460532319 L6.6086692,3.01444867 L6.02281369,3.01201521 L7.9026616,5.08775665" id="flash2" sketch:type="MSShapeGroup">


                   <animate attributeName="opacity" from="1" to="0" dur="1s" begin="overlay.mouseover" end="overlay.mouseout" repeatCount="indefinite" />
                                <animateMotion from="0,0" to="-10,-10" dur="1s" begin="overlay.mouseover" end="overlay.mouseout" repeatCount="indefinite" />

                </path>
                <path d="M7.69885932,10.9943726 L8.24395437,10.6038023 L5.75634981,9.64197719 L6.17794677,9.04577947 L0.622965779,8.56395437 L0.580380228,8.69475285 L2.84288973,9.58479087 L2.58007605,10.0702662 L5.57749049,10.8051711 L5.11695817,11.3825095 L9.26235741,11.9440304 L9.31954373,11.8296578 L7.69885932,10.9943726" id="flash1" sketch:type="MSShapeGroup">

                    <animate attributeName="opacity" from="1" to="0" dur="1s" begin="overlay.mouseover" end="overlay.mouseout" repeatCount="indefinite" />
                        <animateMotion from="0,0" to="-10,-6" dur="1s" begin="overlay.mouseover" end="overlay.mouseout" repeatCount="indefinite" />

                </path>

<!--
                    <path d="M20.6923194,10.9943726 L20.1472243,10.6038023 L22.6348289,9.64197719 L22.2132319,9.04577947 L27.7682129,8.56395437 L27.8107985,8.69475285 L25.548289,9.58479087 L25.8111027,10.0702662 L22.8136882,10.8051711 L23.2742205,11.3825095 L19.1288213,11.9440304 L19.071635,11.8296578 L20.6923194,10.9943726" id="flash4"></path>
                    <path d="M20.4873004,5.08775665 L20.9435741,5.45460076 L17.0451711,8.19528517 L16.9539163,8.10098859 L18.3440304,6.20593156 L17.6188593,6.24851711 L19.1659316,4.47087452 L18.7668441,3.98418251 L23.5485932,0.366844106 L23.6398479,0.460532319 L21.7812928,3.01444867 L22.3671483,3.01201521 L20.4873004,5.08775665" id="flash3"></path>
                    <path d="M7.9026616,5.08775665 L7.4469962,5.45460076 L11.3447909,8.19528517 L11.4360456,8.10098859 L10.0459316,6.20593156 L10.7711027,6.24851711 L9.22403042,4.47087452 L9.62311787,3.98418251 L4.84136882,0.366844106 L4.75011407,0.460532319 L6.6086692,3.01444867 L6.02281369,3.01201521 L7.9026616,5.08775665" id="flash2"></path>
                    <path d="M7.69885932,10.9943726 L8.24395437,10.6038023 L5.75634981,9.64197719 L6.17794677,9.04577947 L0.622965779,8.56395437 L0.580380228,8.69475285 L2.84288973,9.58479087 L2.58007605,10.0702662 L5.57749049,10.8051711 L5.11695817,11.3825095 L9.26235741,11.9440304 L9.31954373,11.8296578 L7.69885932,10.9943726" id="flash1"></path>
-->                </g>
            </g>
        </g>
    </g>
    <rect id="overlay" x="0" y="0" width="185" height="60" pointer-events="all" fill="none" />
    </a>
</svg>
