<svg width="903" height="293" xmlns="http://www.w3.org/2000/svg">
 <!-- Generator: Sketch 3.3.2 (12043) - http://www.bohemiancoding.com/sketch -->
 <title>Slice 1</title>
 <desc>Created with Sketch.</desc>
 <g>
  <title>Layer 1</title>
  <g opacity="0.04" fill-rule="evenodd" fill="none" id="Page-1">
   <g id="Group">
    <path fill="#4A4A4A" id="Shape" d="m661.499207,182.602631c-0.004944,0.047287 0.000732,0.091217 -0.00708,0.140594c-0.863037,5.448822 -5.96991,9.170135 -11.406372,8.309082c-5.436462,-0.861053 -9.143494,-5.978348 -8.280518,-11.42717c0.007446,-0.046906 0.026428,-0.086929 0.034241,-0.136307c-31.343811,-5.850159 -38.597473,-12.255539 -37.61322,-18.469711c0.308105,-1.94548 1.447571,-3.642868 3.773621,-4.95491c17.50824,-14.22139 21.203064,-8.931412 25.092651,-33.489372c2.593323,-16.373619 5.639893,-31.27845 25.787048,-30.858704c-0.247009,-0.965393 -0.312012,-1.993073 -0.146606,-3.037415c0.647583,-4.088455 4.478149,-6.878105 8.55426,-6.232521c4.076172,0.645599 6.857239,4.48243 6.209656,8.5709c-0.165405,1.044334 -0.5448,2.001633 -1.078003,2.84346c19.290771,5.826599 17.582397,20.943359 14.989075,37.316994c-3.901367,24.632034 1.28717,20.635132 13.624268,39.765793c1.706116,1.915253 2.248779,3.825912 1.94928,5.717072c-0.983459,6.209244 -10.073792,10.025986 -41.4823,5.942215l0,0zm-10.632568,3.519318c2.720703,0.430908 5.272888,-1.429932 5.704224,-4.153107c0.002319,-0.014816 -0.000244,-0.030411 0.002075,-0.045227c-1.610718,-0.232346 -3.207092,-0.459869 -4.925415,-0.732025c-1.718323,-0.272156 -3.304382,-0.548676 -4.910583,-0.825851c-0.002319,0.014816 -0.009644,0.028854 -0.011963,0.043655c-0.431335,2.72319 1.420959,5.281631 4.141663,5.712555l0,0zm15.639709,-98.745392c-1.360352,-0.215469 -2.633789,0.714127 -2.849609,2.076942c-0.215881,1.362823 0.707581,2.642891 2.067932,2.858353c1.360352,0.215462 2.636658,-0.716202 2.852539,-2.079025c0.21582,-1.362823 -0.71051,-2.640808 -2.070862,-2.85627l0,0zm30.79248,86.893173c0,0 -3.087402,-4.826813 -8.362061,-11.407196c-7.199829,-8.99852 -9.535034,-13.093735 -6.466614,-32.467041c2.996887,-18.921509 3.6604,-29.790039 -17.527527,-33.145882c-21.187927,-3.355827 -23.915466,7.185776 -26.912354,26.107292c-3.068787,19.375778 -6.558044,22.551025 -16.191467,28.885956c-6.912964,4.54628 -11.382446,8.173676 -11.382446,8.173676c-1.178589,0.666214 -1.255249,1.150116 -1.292358,1.384659c-0.048096,0.303665 -0.668152,7.494202 43.265564,14.452637c43.933777,6.95842 45.56604,-0.071808 45.614136,-0.375473c0.031311,-0.19751 0.104431,-0.659195 -0.744873,-1.608627l0,0z"/>
    <g fill="#4A4A4A" transform="translate(551.4401245117188,217.60379028320312) " id="Shape-+-Shape">
     <path id="Shape" d="m46.642262,4.66043c23.146221,0 41.978039,18.816501 41.978039,41.94391c0,23.127403 -18.831818,41.943901 -41.978039,41.943901c-23.146221,0 -41.978032,-18.816498 -41.978032,-41.943901c0,-23.127409 18.83181,-41.94391 41.978032,-41.94391l0,0zm0,-4.66043c-25.762852,0 -46.642262,20.864759 -46.642262,46.60434c0,25.741898 20.87941,46.60434 46.642262,46.60434c25.75819,0 46.642262,-20.862442 46.642262,-46.60434c0,-25.73958 -20.884071,-46.60434 -46.642262,-46.60434l0,0l0,0z"/>
     <path id="Shape" d="m59.548031,70.580559c-4.568241,2.162384 -8.822071,2.936142 -14.26078,2.936142c-13.00082,0 -24.26539,-9.199921 -24.26539,-24.28595c0,-15.77459 11.501539,-29.53878 29.15037,-29.53878c13.871304,0 23.404293,9.434818 23.404293,22.349251c0,11.442909 -6.539124,18.402149 -14.500103,18.402149c-3.465469,0 -6.22237,-1.929802 -6.37957,-6.342072l-0.23933,0c-2.59734,4.25568 -6.144939,6.342072 -10.558319,6.342072c-4.884991,0 -8.74934,-3.709911 -8.74934,-9.89999c0,-9.50621 7.409599,-18.169559 18.596741,-18.169559c3.470169,0 6.937988,0.773758 8.986309,1.780109l-2.52462,14.15107c-0.943211,5.181431 -0.239319,7.578709 2.13044,7.578709c3.702454,0.15659 8.033707,-4.56427 8.033707,-13.455608c0,-10.671452 -6.698666,-18.48044 -18.908787,-18.48044c-12.45179,0 -23.09223,9.510809 -23.09223,24.746519c0,12.91214 8.5147,20.490841 20.173441,20.490841c4.25618,0 8.51001,-0.845154 11.663429,-2.553871l1.339741,3.949409l0,0zm-5.750771,-32.557827c-0.788361,-0.23489 -1.80899,-0.465172 -3.148731,-0.465172c-5.990089,0 -10.717869,5.720299 -10.717869,12.29496c0,3.17104 1.499279,5.33342 4.41338,5.33342c3.70245,0 7.245361,-4.642559 8.038399,-9.199921l1.414822,-7.963287l0,0z"/>
    </g>
    <g fill="#4A4A4A" transform="translate(858.4401245117188,113.6037826538086) " id="Shape-+-Shape-Copy-2">
     <path id="Shape" d="m31.46839,3.14428c15.61619,0 28.32155,12.69503 28.32155,28.298521c0,15.603498 -12.70536,28.298529 -28.32155,28.298529c-15.61619,0 -28.321549,-12.69503 -28.321549,-28.298529c0,-15.603491 12.705359,-28.298521 28.321549,-28.298521l0,0zm0,-3.14428c-17.38157,0 -31.46839,14.07694 -31.46839,31.442801c0,17.36743 14.08682,31.442801 31.46839,31.442801c17.37842,0 31.46839,-14.075371 31.46839,-31.442801c0,-17.365861 -14.08997,-31.442801 -31.46839,-31.442801l0,0l0,0z"/>
     <path id="Shape" d="m40.175591,47.618969c-3.082069,1.458912 -5.95203,1.980942 -9.621391,1.980942c-8.771339,0 -16.37126,-6.206963 -16.37126,-16.385132c0,-10.642729 7.7598,-19.929089 19.66704,-19.929089c9.35862,0 15.790302,6.36544 15.790302,15.078489c0,7.720251 -4.411793,12.41548 -9.782871,12.41548c-2.33807,0 -4.198082,-1.301991 -4.304142,-4.278839l-0.161469,0c-1.752361,2.871201 -4.14584,4.278839 -7.12344,4.278839c-3.29578,0 -5.90296,-2.502979 -5.90296,-6.679279c0,-6.413601 4.999079,-12.25856 12.546759,-12.25856c2.34124,0 4.680901,0.522039 6.06284,1.201l-1.703289,9.547379c-0.63636,3.495781 -0.161469,5.113171 1.437351,5.113171c2.497959,0.105652 5.420151,-3.079399 5.420151,-9.078169c0,-7.19977 -4.519432,-12.4683 -12.757301,-12.4683c-8.400909,0 -15.57976,6.41671 -15.57976,16.695871c0,8.711498 5.744659,13.824669 13.610529,13.824669c2.87154,0 5.741489,-0.57021 7.86903,-1.723042l0.903881,2.66457l0,0zm-3.879902,-21.96596c-0.531879,-0.15848 -1.220478,-0.313848 -2.124367,-0.313848c-4.041372,0 -7.231092,3.859348 -7.231092,8.295109c0,2.13942 1.01153,3.598331 2.9776,3.598331c2.497961,0 4.888269,-3.132221 5.423319,-6.206961l0.95454,-5.372631l0,0z"/>
    </g>
    <path fill="#4A4A4A" id="Shape" d="m536.954346,35.514462l-79.280334,21.243088l-0.687561,0.184231l-1.66861,0.447109l-1.149384,0.30798l14.962036,55.839111l86.296814,-23.123161l-14.962036,-55.839108l-2.984985,0.799809l-0.52594,0.140942l0,0zm-2.516724,4.414928l-24.307495,42.639252c-1.108368,1.944305 -3.761505,2.655205 -5.693573,1.525589l-42.375549,-24.771572l72.376617,-19.393269l0,0zm-75.509857,21.722889l28.484497,16.651409l-16.341644,28.66629l-12.142853,-45.317699l0,0zm15.473145,46.730343l16.115326,-28.264122l12.1409,7.097168c1.793488,1.050095 3.883698,1.33387 5.881012,0.798691c1.997314,-0.535172 3.665588,-1.826042 4.693726,-3.632187l6.965332,-12.218361l28.087036,16.421829l-73.883331,19.796982l0,0zm76.063507,-22.684273l-28.486023,-16.656441l16.341248,-28.66787l12.144592,45.324348l0.000183,-0.000038z"/>
    <path transform="translate(830.4549560546875,230.65725708007812) " fill="#4A4A4A" id="Shape-Copy-5" d="m862.611389,192.116882l-79.280273,21.243088l-0.687561,0.184235l-1.66864,0.447098l-1.149353,0.307983l14.962036,55.839111l86.296814,-23.123154l-14.962036,-55.839111l-2.984985,0.799805l-0.526001,0.140945l0,0zm-2.516663,4.414932l-24.307495,42.639252c-1.108398,1.944305 -3.761536,2.655212 -5.693604,1.525589l-42.375549,-24.771576l72.376648,-19.393265l0,0zm-75.509888,21.722885l28.484497,16.651413l-16.341614,28.666275l-12.142883,-45.317688l0,0zm15.473145,46.730347l16.115295,-28.26413l12.14093,7.097168c1.793457,1.050095 3.883728,1.333878 5.880981,0.798691c1.997314,-0.535172 3.665649,-1.826035 4.693787,-3.632187l6.965332,-12.218353l28.087036,16.421829l-73.883362,19.796982l0,0zm76.063538,-22.68428l-28.486023,-16.656433l16.341187,-28.667877l12.144653,45.324356l0.000183,-0.000046z"/>
    <path fill="#4A4A4A" id="Shape" d="m736.449219,72.815697l20.205933,40.654305l51.639465,-112.990131l-112.990112,54.222118l41.144714,18.113708l0,0zm0.940308,-4.01622l-31.574341,-13.817207l86.713379,-41.364009l-55.139038,55.181216l0,0zm19.422241,34.159821l-15.522888,-31.209427l55.181213,-55.503931l-39.658325,86.713358l0,0z"/>
    <path fill="#4A4A4A" id="Shape-Copy-3" d="m221.045502,185.20311c-0.003448,0.032944 0.000519,0.063553 -0.004929,0.097946c-0.601242,3.796112 -4.159134,6.388687 -7.94664,5.788803c-3.787506,-0.599884 -6.370117,-4.165009 -5.768875,-7.961121c0.005173,-0.032684 0.018402,-0.060562 0.023849,-0.094955c-21.836746,-4.075714 -26.890259,-8.538239 -26.204559,-12.867554c0.214676,-1.355377 1.008499,-2.537933 2.629059,-3.452011c12.197678,-9.907806 14.77182,-6.222366 17.481628,-23.331497c1.806732,-11.407227 3.929214,-21.791183 17.965393,-21.498764c-0.172058,-0.672554 -0.217346,-1.388535 -0.102112,-2.116104c0.451141,-2.848373 3.119858,-4.79187 5.959625,-4.342094c2.839767,0.449768 4.777298,3.122833 4.326157,5.971199c-0.115234,0.72757 -0.379547,1.394516 -0.751022,1.980995c13.43956,4.059296 12.249344,14.590904 10.442612,25.998146c-2.717987,17.160736 0.896759,14.37616 9.491837,27.704178c1.188614,1.33432 1.566696,2.665451 1.358017,3.983002c-0.68515,4.325867 -7.01825,6.984924 -28.90004,4.139832l0,0zm-7.407547,2.451843c1.895477,0.300217 3.673569,-0.996201 3.97406,-2.893402c0.001633,-0.010315 -0.000183,-0.021179 0.001465,-0.031494c-1.122192,-0.161865 -2.234344,-0.320389 -3.431488,-0.509995c-1.197128,-0.189606 -2.302109,-0.382248 -3.421112,-0.575348c-0.001648,0.010315 -0.006714,0.020096 -0.008347,0.030411c-0.300491,1.897186 0.98996,3.679626 2.885422,3.979828l0,0zm10.89595,-68.794296c-0.947739,-0.150108 -1.834915,0.497513 -1.985291,1.446976c-0.150391,0.949455 0.492981,1.841255 1.44072,1.991371c0.947739,0.150093 1.836914,-0.49897 1.987289,-1.448433c0.150375,-0.949448 -0.49498,-1.839798 -1.442719,-1.989914l0,0zm21.452621,60.537064c0,0 -2.150955,-3.362762 -5.825729,-7.94722c-5.015991,-6.269104 -6.642883,-9.122192 -4.505157,-22.619263c2.08786,-13.182297 2.550125,-20.754227 -12.211166,-23.092186c-14.761292,-2.337959 -16.661499,5.006218 -18.749374,18.18853c-2.138,13.498779 -4.568909,15.710922 -11.280365,20.124374c-4.816162,3.167313 -7.929947,5.694458 -7.929947,5.694458c-0.821106,0.464142 -0.874496,0.80127 -0.900375,0.964676c-0.033508,0.211563 -0.465485,5.221085 30.142441,10.068909c30.607925,4.847824 31.745117,-0.050018 31.778625,-0.261581c0.02179,-0.137604 0.072739,-0.459244 -0.518951,-1.120697l0,0z"/>
    <g transform="translate(152.74607849121094,61.129852294921875) " id="1445131134_update-copy">
     <rect height="77.455096" width="77.518126" id="Rectangle-path"/>
     <path stroke-width="2" stroke="#4A4A4A" id="Shape" d="m63.06559,10.50239l0,14.440781l-14.45253,-0.00161"/>
     <path stroke-width="2" stroke="#4A4A4A" id="Shape" d="m11.8248,38.071152c0,-14.502562 11.815569,-26.255972 26.394831,-26.255972c7.780258,0 14.774887,3.34687 19.605137,8.67374c0.959534,1.059509 1.83522,2.197781 2.613091,3.40246"/>
     <path stroke-width="2" stroke="#4A4A4A" id="Shape" d="m15.7664,66.952713l0,-14.440784l14.452529,0.001602"/>
     <path stroke-width="2" stroke="#4A4A4A" id="Shape" d="m65.693329,39.383949c0,14.50256 -11.815567,26.255974 -26.394829,26.255974c-7.78026,0 -14.774891,-3.348423 -19.60515,-8.673744c-0.95953,-1.06105 -1.835209,-2.197781 -2.613079,-3.40247"/>
    </g>
    <g fill="#4A4A4A" transform="translate(322.2484130859375,104.17859649658203) " id="Shape-+-Shape-Copy">
     <path id="Shape" d="m35.171711,3.51431c17.45396,0 31.65453,14.189031 31.65453,31.628798c0,17.43977 -14.200569,31.628788 -31.65453,31.628788c-17.45396,0 -31.654541,-14.189018 -31.654541,-31.628788c0,-17.439768 14.200581,-31.628798 31.654541,-31.628798l0,0zm0,-3.51431c-19.427101,0 -35.171711,15.73357 -35.171711,35.143108c0,19.411301 15.74461,35.143108 35.171711,35.143108c19.423569,0 35.171696,-15.731808 35.171696,-35.143108c0,-19.409538 -15.748127,-35.143108 -35.171696,-35.143108l0,0l0,0z"/>
     <path id="Shape" d="m44.90361,53.22295c-3.44479,1.6306 -6.652489,2.214069 -10.753681,2.214069c-9.803579,0 -18.297889,-6.93742 -18.297889,-18.3134c0,-11.895199 8.673009,-22.274419 21.981521,-22.274419c10.459988,0 17.648567,7.114551 17.648567,16.852981c0,8.628798 -4.930977,13.876577 -10.934147,13.876577c-2.61322,0 -4.692131,-1.455208 -4.810673,-4.782387l-0.18047,0c-1.958588,3.209099 -4.633739,4.782387 -7.961748,4.782387c-3.683641,0 -6.597651,-2.797539 -6.597651,-7.465317c0,-7.168381 5.587389,-13.701191 14.023308,-13.701191c2.616772,0 5.231762,0.583469 6.77634,1.342329l-1.90374,10.67095c-0.71125,3.907192 -0.18047,5.714912 1.60651,5.714912c2.79192,0.118076 6.05801,-3.441792 6.05801,-10.146523c0,-8.04706 -5.0513,-13.935619 -14.258629,-13.935619c-9.389561,0 -17.41325,7.17185 -17.41325,18.660709c0,9.736702 6.420719,15.451599 15.212269,15.451599c3.209473,0 6.417183,-0.637299 8.79509,-1.925808l1.010262,2.978149l0,0zm-4.33651,-24.551001c-0.594471,-0.17713 -1.364109,-0.350779 -2.374371,-0.350779c-4.516972,0 -8.082069,4.31353 -8.082069,9.271309c0,2.39119 1.130569,4.02179 3.328011,4.02179c2.791927,0 5.463539,-3.500828 6.061558,-6.93742l1.066872,-6.0049l0,0z"/>
    </g>
    <path fill="#4A4A4A" id="Shape-Copy-2" d="m102.950539,121.901627l-98.563319,26.409973l-0.85479,0.229034l-2.07446,0.555862l-1.42896,0.382874l18.601201,69.420624l107.286423,-28.747299l-18.601204,-69.420624l-3.710983,0.994347l-0.653908,0.175209l0,0zm-3.128799,5.488777l-30.219719,53.010201c-1.377983,2.417206 -4.67643,3.301025 -7.0784,1.896652l-52.682401,-30.796646l89.980519,-24.110207l0,0zm-93.875819,27.006447l35.41265,20.701462l-20.31636,35.638657l-15.09629,-56.340118l0,0zm19.23659,58.096359l20.034981,-35.138687l15.09388,8.823395c2.22971,1.305496 4.828316,1.658295 7.311432,0.99295c2.483109,-0.665344 4.557167,-2.270187 5.835411,-4.51564l8.65947,-15.19017l34.918503,20.416031l-91.853676,24.612122l0,0zm94.564133,-28.201675l-35.414566,-20.707718l20.315826,-35.640625l15.098503,56.348404l0.000237,-0.000061z"/>
    <path fill="#4A4A4A" id="Shape-Copy" d="m353.110229,222.976044l15.156036,30.493958l38.733734,-84.751572l-84.751587,40.670898l30.861816,13.586716l0,0zm0.705322,-3.012482l-23.683258,-10.363998l65.041901,-31.026306l-41.358643,41.390305l0,0zm14.568207,25.622574l-11.643402,-23.409546l41.390289,-41.632355l-29.746887,65.041901l0,0z"/>
   </g>
  </g>
 </g>
</svg>
