<?xml version="1.0" encoding="UTF-8" standalone="no"?>
<svg width="116px" height="37px" viewBox="0 0 116 37" version="1.1" xmlns="http://www.w3.org/2000/svg" xmlns:xlink="http://www.w3.org/1999/xlink" xmlns:sketch="http://www.bohemiancoding.com/sketch/ns">
    <!-- Generator: Sketch 3.2.2 (9983) - http://www.bohemiancoding.com/sketch -->
    <title>Artboard 32</title>
    <desc>Created with Sketch.</desc>
    <defs></defs>
    <g id="Courses" stroke="none" stroke-width="1" fill="none" fill-rule="evenodd" sketch:type="MSPage">
        <g id="Artboard-32" sketch:type="MSArtboardGroup" fill="#0068A3">
            <g id="WebMoney-logo-blue_8-2" sketch:type="MSLayerGroup" transform="translate(0.000000, 4.000000)">
                <path d="M101.367929,0.07018 C103.641471,0.07018 105.79463,0.59566 107.712282,1.52859 C108.013531,1.6704 108.313904,1.82642 108.615154,1.99868 L107.282176,3.18275 L105.279496,1.12752 L101.899426,4.11974 L99.8917783,1.94503 L93.5953451,7.57799 L97.6319698,11.99324 L96.0456625,13.37799 L100.021511,17.79991 L98.4445542,19.18147 L104.125924,25.45794 L107.498398,22.3764 L110.414176,25.67863 C109.834176,26.1261 109.202458,26.54718 108.506458,26.93636 C106.398005,28.12971 103.961128,28.81295 101.367929,28.81295 C93.3928564,28.81295 86.8883829,22.35639 86.8883829,14.442 C86.8883829,6.52587 93.3928564,0.07018 101.367929,0.07018" id="Fill-1" sketch:type="MSShapeGroup"></path>
                <path d="M98.7291486,13.53343 L102.172332,10.45595 L105.272776,13.87418 L101.829884,16.9505 L98.7291486,13.53343" id="Fill-2" sketch:type="MSShapeGroup"></path>
                <path d="M101.177421,19.43841 L104.620897,16.3618 L107.721632,19.77916 L104.278448,22.85664 L101.177421,19.43841" id="Fill-3" sketch:type="MSShapeGroup"></path>
                <path d="M96.2653904,7.69747 L99.7085743,4.62086 L102.808141,8.03822 L99.3649572,11.11483 L96.2653904,7.69747" id="Fill-4" sketch:type="MSShapeGroup"></path>
                <path d="M102.583738,6.04128 L105.166126,3.73404 L107.491093,6.29706 L104.908705,8.60517 L102.583738,6.04128" id="Fill-5" sketch:type="MSShapeGroup"></path>
                <path d="M107.17202,16.61149 L109.755285,14.30338 L112.080252,16.86698 L109.497864,19.17451 L107.17202,16.61149" id="Fill-6" sketch:type="MSShapeGroup"></path>
                <path d="M109.443809,21.78857 L112.025612,19.48017 L114.351164,22.04319 L111.768776,24.35072 L109.443809,21.78857" id="Fill-7" sketch:type="MSShapeGroup"></path>
                <path d="M110.48401,9.92322 L112.205602,8.38477 L113.755385,10.09345 L112.03467,11.63161 L110.48401,9.92322" id="Fill-8" sketch:type="MSShapeGroup"></path>
                <path d="M108.284393,4.84619 L110.005985,3.30803 L111.55606,5.01671 L109.834176,6.55487 L108.284393,4.84619" id="Fill-9" sketch:type="MSShapeGroup"></path>
                <path d="M112.685088,14.99996 L114.40668,13.46151 L115.956756,15.1699 L114.235164,16.70835 L112.685088,14.99996" id="Fill-10" sketch:type="MSShapeGroup"></path>
                <path d="M104.964222,11.19574 L107.546317,8.88734 L109.871285,11.45036 L107.289773,13.75789 L104.964222,11.19574" id="Fill-11" sketch:type="MSShapeGroup"></path>
                <path d="M6.89717884,11.96424 L6.78147103,11.96424 L4.60026196,20.14688 L2.81643325,20.14688 L0.139959698,8.52078 L1.99011587,8.52078 L3.84056423,17.19526 L3.95627204,17.19526 L6.10387909,8.52078 L7.5741864,8.52078 L9.87110327,17.19526 L9.9862267,17.19526 L11.6712947,8.52078 L13.6044332,8.52078 L10.9276675,20.14688 L9.1435466,20.14688 L6.89717884,11.96424" id="Fill-12" sketch:type="MSShapeGroup"></path>
                <path d="M20.9252897,18.34279 L20.9252897,19.58892 C20.1819547,20.0158 19.1908413,20.34379 18.0010378,20.34379 C15.2258035,20.34379 14.0859647,18.6383 14.0859647,16.04715 C14.0859647,13.55518 15.3581662,11.75138 17.8362418,11.75138 C19.9008665,11.75138 21.173068,13.07987 21.173068,15.75222 L21.173068,16.35861 L15.7876877,16.35861 C15.7876877,18.32597 16.5970579,19.19539 18.2987809,19.19539 C19.1908413,19.19539 20.0165743,18.88393 20.9252897,18.34279 L20.9252897,18.34279 Z M15.8209975,15.26038 L19.6034156,15.26038 C19.521602,13.53836 18.6786297,12.85019 17.7865693,12.85019 C16.7782166,12.85019 16.0021562,13.62101 15.8209975,15.26038 L15.8209975,15.26038 Z" id="Fill-13" sketch:type="MSShapeGroup"></path>
                <path d="M24.3941864,12.35835 C24.8897431,12.0959 25.732131,11.75138 26.6244836,11.75138 C28.6727456,11.75138 29.7798589,13.16165 29.7798589,15.78586 C29.7798589,18.85145 28.2934811,20.34379 25.8978035,20.34379 C25.0218136,20.34379 23.6672141,20.0651 22.6758086,19.53962 L22.6758086,8.09506 L24.3941864,7.685 L24.3941864,12.35835 L24.3941864,12.35835 Z M24.3778237,18.93323 C24.9061058,19.16291 25.4846448,19.19539 25.8978035,19.19539 C27.1203325,19.19539 28.0454106,18.44139 28.0454106,15.78586 C28.0454106,13.70279 27.2854207,13.03057 26.1785995,13.03057 C25.5173703,13.03057 25.0387607,13.21095 24.3778237,13.57171 L24.3778237,18.93323 L24.3778237,18.93323 Z" id="Fill-14" sketch:type="MSShapeGroup"></path>
                <path d="M37.2967758,17.6871 L37.3797582,17.6871 L40.9149824,8.52078 L42.9638287,8.52078 L42.9638287,20.14688 L41.1797078,20.14688 L41.1797078,11.71861 L41.0306902,11.71861 L37.660262,20.14688 L36.6034055,20.14688 L33.2326851,11.91552 L33.0842519,11.91552 L33.0842519,20.14688 L31.5972897,20.14688 L31.5972897,8.52078 L33.5961713,8.52078 L37.2967758,17.6871" id="Fill-15" sketch:type="MSShapeGroup"></path>
                <path d="M44.7809673,16.04715 C44.7809673,13.1776 46.3669824,11.75138 48.5476071,11.75138 C50.7285239,11.75138 52.3148312,13.1776 52.3148312,16.04715 C52.3148312,18.85145 50.8112141,20.34379 48.5476071,20.34379 C46.284,20.34379 44.7809673,18.85145 44.7809673,16.04715 L44.7809673,16.04715 Z M50.5797985,16.04715 C50.5797985,13.83387 49.6707909,12.89949 48.5476071,12.89949 C47.4571486,12.89949 46.5154156,13.83387 46.5154156,16.04715 C46.5154156,18.29436 47.3750428,19.19539 48.5476071,19.19539 C49.7204635,19.19539 50.5797985,18.29436 50.5797985,16.04715 L50.5797985,16.04715 Z" id="Fill-16" sketch:type="MSShapeGroup"></path>
                <path d="M53.8838992,12.96474 C54.6272343,12.52191 56.1971788,11.75138 58.096131,11.75138 C60.0795264,11.75138 60.8222771,12.52191 60.8222771,14.21058 L60.8222771,20.14688 L59.1041914,20.14688 L59.1041914,14.58816 C59.1041914,13.29273 58.4604937,13.06305 57.6181058,13.06305 C56.9568766,13.06305 56.1141965,13.35885 55.6022771,13.65349 L55.6022771,20.14688 L53.8838992,20.14688 L53.8838992,12.96474" id="Fill-17" sketch:type="MSShapeGroup"></path>
                <path d="M69.1979446,18.34279 L69.1979446,19.58892 C68.4549018,20.0158 67.4640806,20.34379 66.2739849,20.34379 C63.4990428,20.34379 62.3589118,18.6383 62.3589118,16.04715 C62.3589118,13.55518 63.6314055,11.75138 66.1091889,11.75138 C68.1746902,11.75138 69.4471839,13.07987 69.4471839,15.75222 L69.4471839,16.35861 L64.0612191,16.35861 C64.0612191,18.32597 64.8705894,19.19539 66.5720202,19.19539 C67.4640806,19.19539 68.2901058,18.88393 69.1979446,18.34279 L69.1979446,18.34279 Z M64.0939446,15.26038 L67.8769471,15.26038 C67.7948413,13.53836 66.9515768,12.85019 66.0595164,12.85019 C65.0514559,12.85019 64.2759798,13.62101 64.0939446,15.26038 L64.0939446,15.26038 Z" id="Fill-18" sketch:type="MSShapeGroup"></path>
                <path d="M75.8733501,12.03007 L77.6411083,12.03007 L74.650529,20.22866 C73.8242116,22.49182 72.8161511,23.67183 70.917199,23.67183 L70.917199,22.32797 C72.0406751,22.32797 72.7337531,21.44173 73.1308413,20.22866 L69.9588111,12.03007 L71.7762418,12.03007 L73.8908312,18.06381 L73.9892997,18.06381 L75.8733501,12.03007" id="Fill-19" sketch:type="MSShapeGroup"></path>
            </g>
        </g>
    </g>
</svg>