<?xml version="1.0" encoding="UTF-8" standalone="no"?>
<svg width="116px" height="37px" viewBox="0 0 116 37" version="1.1" xmlns="http://www.w3.org/2000/svg" xmlns:xlink="http://www.w3.org/1999/xlink" xmlns:sketch="http://www.bohemiancoding.com/sketch/ns">
    <!-- Generator: Sketch 3.2.2 (9983) - http://www.bohemiancoding.com/sketch -->
    <title>Artboard 31</title>
    <desc>Created with Sketch.</desc>
    <defs>
        <path id="path-1" d="M0.087,0 L116,0 L116,34.9125 L0.087,34.9125"></path>
    </defs>
    <g id="Courses" stroke="none" stroke-width="1" fill="none" fill-rule="evenodd" sketch:type="MSPage">
        <g id="Artboard-31" sketch:type="MSArtboardGroup">
            <g id="interkassa" sketch:type="MSLayerGroup" transform="translate(0.000000, 1.000000)">
                <g id="Group-6">
                    <mask id="mask-2" sketch:name="Clip 2" fill="white">
                        <use xlink:href="#path-1"></use>
                    </mask>
                    <g id="Clip-2"></g>
                    <path d="M0.029,25.76875 L0.029,29.5020833 C0.029,29.5020833 5.916,35 12.2235,35 C18.5165,35 23.896,29.5020833 23.896,29.5020833 L23.896,25.8270833 C23.896,25.7979167 18.1975,29.4583333 12.296,29.44375 C6.264,29.44375 0.029,25.76875 0.029,25.76875" id="Fill-1" fill="#5CB45A" sketch:type="MSShapeGroup" mask="url(#mask-2)"></path>
                    <path d="M23.896,12.0604167 L23.896,11.9145833 C23.7075,5.30833333 18.444,0 11.9625,0 C5.481,0 0.2175,5.30833333 0.0435,11.9145833 L0.029,11.9145833 L0.029,23.84375 C0.029,23.84375 5.307,27.1979167 12.4845,27.1979167 C19.2995,27.1979167 23.896,23.7854167 23.896,23.7854167 L23.896,12.0604167" id="Fill-3" fill="#13A85D" sketch:type="MSShapeGroup" mask="url(#mask-2)"></path>
                    <path d="M12.3975,18.50625 C14.8335,18.50625 16.791,16.49375 16.791,14 C16.791,11.50625 14.8335,9.47916667 12.3975,9.47916667 C9.976,9.47916667 8.0185,11.50625 8.0185,14 C8.0185,16.49375 9.976,18.50625 12.3975,18.50625" id="Fill-4" fill="#FFFFFF" sketch:type="MSShapeGroup" mask="url(#mask-2)"></path>
                    <path d="M18.56,26.2208333 C18.27,22.3125 15.631,19.25 12.3975,19.25 C9.1495,19.25 6.4815,22.3854167 6.2495,26.3520833 C2.5955,25.3166667 0,23.7854167 0,23.7854167 L0,25.8125 C0,25.8125 6.525,29.5458333 12.3975,29.5458333 C18.2845,29.5458333 23.925,26.0020833 23.925,26.0020833 L23.925,23.7854167 C23.925,23.7854167 21.083,25.4770833 18.56,26.2208333" id="Fill-5" fill="#FFFFFF" sketch:type="MSShapeGroup" mask="url(#mask-2)"></path>
                </g>
                <path d="M32.9005,10.5729167 L32.9005,13.0083333 C32.9005,15.05 32.7845,17.01875 32.683,18.1708333 L32.741,18.1708333 C33.1035,16.9895833 33.582,15.7354167 33.93,14.8458333 L35.5395,10.5729167 L38.2365,10.5729167 L38.2365,21.7875 L35.6555,21.7875 L35.6555,19.3375 C35.6555,17.0625 35.757,15.7791667 35.8295,14.2916667 L35.757,14.2916667 C35.4235,15.4583333 35.148,16.40625 34.7275,17.4708333 C34.452,18.2291667 33.5965,20.43125 32.9875,21.7875 L30.334,21.7875 L30.334,10.5729167 L32.9005,10.5729167" id="Fill-7" fill="#233540" sketch:type="MSShapeGroup"></path>
                <path d="M43.0795,10.5729167 L43.0795,14.8166667 L45.327,14.8166667 L45.327,10.5729167 L48.1835,10.5729167 L48.1835,21.7875 L45.327,21.7875 L45.327,17.36875 L43.0795,17.36875 L43.0795,21.7875 L40.223,21.7875 L40.223,10.5729167 L43.0795,10.5729167" id="Fill-8" fill="#233540" sketch:type="MSShapeGroup"></path>
                <path d="M56.956,10.5729167 L56.956,13.0083333 L54.578,13.0083333 L54.578,21.7875 L51.6925,21.7875 L51.6925,13.0083333 L49.3145,13.0083333 L49.3145,10.5729167 L56.956,10.5729167" id="Fill-9" fill="#233540" sketch:type="MSShapeGroup"></path>
                <path d="M60.0735,17.2520833 C60.117,18.9875 61.074,19.6291667 62.3355,19.6291667 C63.1475,19.6291667 63.858,19.4541667 64.3655,19.2645833 L64.757,21.4229167 C64.0175,21.7145833 62.901,21.91875 61.8135,21.91875 C58.9135,21.91875 57.3185,19.90625 57.3185,16.40625 C57.3185,12.64375 59.1745,10.3979167 61.596,10.3979167 C63.887,10.3979167 65.2065,12.29375 65.2065,15.6916667 C65.2065,16.49375 65.192,16.93125 65.1195,17.2520833 L60.0735,17.2520833 L60.0735,17.2520833 Z M62.611,15.1375 C62.611,13.69375 62.263,12.5708333 61.422,12.5708333 C60.4795,12.5708333 60.117,14.0145833 60.088,15.1375 L62.611,15.1375 L62.611,15.1375 Z" id="Fill-10" fill="#233540" sketch:type="MSShapeGroup"></path>
                <path d="M66.4535,14.13125 C66.4535,12.775 66.41,11.6375 66.3665,10.5729167 L68.846,10.5729167 L69.0055,11.85625 L69.049,11.85625 C69.484,10.9375 70.2815,10.3979167 71.2675,10.3979167 C73.6165,10.3979167 74.588,13.0520833 74.588,16.1729167 C74.588,20.1541667 72.906,21.9625 71.108,21.9625 C70.238,21.9625 69.658,21.39375 69.3535,20.86875 L69.31,20.86875 L69.31,26.1916667 L66.4535,26.1916667 L66.4535,14.13125 L66.4535,14.13125 Z M69.31,17.6895833 C69.31,18.06875 69.3535,18.41875 69.455,18.6520833 C69.6725,19.3375 70.0495,19.5125 70.3685,19.5125 C71.369,19.5125 71.7315,17.9520833 71.7315,16.1875 C71.7315,14.0583333 71.2385,12.9208333 70.3975,12.9208333 C69.9625,12.9208333 69.542,13.3583333 69.4405,13.8833333 C69.3245,14.1020833 69.31,14.4083333 69.31,14.6854167 L69.31,17.6895833 L69.31,17.6895833 Z" id="Fill-11" fill="#233540" sketch:type="MSShapeGroup"></path>
                <path d="M78.8365,10.5729167 L78.8365,15.05 L79.141,15.05 L80.9825,10.5729167 L83.955,10.5729167 L81.2,15.3854167 C82.273,15.7645833 82.824,17.1354167 83.0995,18.59375 C83.2735,19.4541667 83.7085,21.0291667 84.042,21.7875 L81.1855,21.7875 C80.881,21.1604167 80.6635,20.1979167 80.417,19.0604167 C80.156,17.9375 79.721,17.1354167 79.025,17.1354167 L78.8365,17.1354167 L78.8365,21.7875 L76.038,21.7875 L76.038,10.5729167 L78.8365,10.5729167" id="Fill-12" fill="#13A85D" sketch:type="MSShapeGroup"></path>
                <path d="M90.1465,21.7875 L89.987,20.6791667 L89.9435,20.6791667 C89.3635,21.5541667 88.537,21.9625 87.5945,21.9625 C85.985,21.9625 84.7815,20.5479167 84.7815,18.55 C84.7815,15.61875 87.2465,14.4083333 89.668,14.3791667 L89.668,14.13125 C89.668,13.25625 89.1605,12.6145833 88.16,12.6145833 C87.3045,12.6145833 86.6085,12.8479167 85.985,13.25625 L85.463,11.24375 C86.043,10.8791667 87.29,10.3979167 88.769,10.3979167 C92.017,10.3979167 92.539,12.775 92.539,15.05 L92.539,19.2208333 C92.539,20.1104167 92.5825,21.0291667 92.713,21.7875 L90.1465,21.7875 L90.1465,21.7875 Z M89.755,16.3333333 C88.798,16.3479167 87.493,16.66875 87.493,18.2291667 C87.493,19.3520833 88.073,19.775 88.508,19.775 C88.972,19.775 89.494,19.46875 89.6825,18.8125 C89.726,18.6520833 89.755,18.4625 89.755,18.2729167 L89.755,16.3333333 L89.755,16.3333333 Z" id="Fill-13" fill="#13A85D" sketch:type="MSShapeGroup"></path>
                <path d="M100.311,21.5979167 C100.021,21.74375 99.296,21.91875 98.4985,21.91875 C95.787,21.91875 94.018,19.95 94.018,16.2895833 C94.018,12.81875 95.961,10.4125 98.9045,10.4125 C99.586,10.4125 100.195,10.5729167 100.485,10.71875 L100.108,13.08125 C99.8615,12.9791667 99.5135,12.8770833 99.035,12.8770833 C97.672,12.8770833 96.86,14.2479167 96.86,16.1875 C96.86,18.2291667 97.672,19.46875 98.9915,19.46875 C99.412,19.46875 99.76,19.3958333 100.0645,19.2354167 L100.311,21.5979167" id="Fill-14" fill="#13A85D" sketch:type="MSShapeGroup"></path>
                <path d="M107.1695,21.5979167 C106.8795,21.74375 106.169,21.91875 105.357,21.91875 C102.66,21.91875 100.891,19.95 100.891,16.2895833 C100.891,12.81875 102.834,10.4125 105.7775,10.4125 C106.4445,10.4125 107.0535,10.5729167 107.3435,10.71875 L106.9665,13.08125 C106.7345,12.9791667 106.3865,12.8770833 105.908,12.8770833 C104.5305,12.8770833 103.7185,14.2479167 103.7185,16.1875 C103.7185,18.2291667 104.5305,19.46875 105.8645,19.46875 C106.2705,19.46875 106.6185,19.3958333 106.923,19.2354167 L107.1695,21.5979167" id="Fill-15" fill="#13A85D" sketch:type="MSShapeGroup"></path>
                <path d="M113.4335,21.7875 L113.274,20.6791667 L113.2305,20.6791667 C112.636,21.5541667 111.8095,21.9625 110.8815,21.9625 C109.2575,21.9625 108.0685,20.5479167 108.0685,18.55 C108.0685,15.61875 110.5335,14.4083333 112.9405,14.3791667 L112.9405,14.13125 C112.9405,13.25625 112.4475,12.6145833 111.447,12.6145833 C110.5915,12.6145833 109.8955,12.8479167 109.2575,13.25625 L108.7355,11.24375 C109.33,10.8791667 110.577,10.3979167 112.056,10.3979167 C115.304,10.3979167 115.826,12.775 115.826,15.05 L115.826,19.2208333 C115.826,20.1104167 115.8695,21.0291667 116,21.7875 L113.4335,21.7875 L113.4335,21.7875 Z M113.0275,16.3333333 C112.0705,16.3479167 110.7655,16.66875 110.7655,18.2291667 C110.7655,19.3520833 111.36,19.775 111.795,19.775 C112.2445,19.775 112.7665,19.46875 112.9695,18.8125 C113.013,18.6520833 113.0275,18.4625 113.0275,18.2729167 L113.0275,16.3333333 L113.0275,16.3333333 Z" id="Fill-16" fill="#13A85D" sketch:type="MSShapeGroup"></path>
            </g>
        </g>
    </g>
</svg>