<?xml version="1.0" encoding="UTF-8" standalone="no"?>
<svg width="116px" height="37px" viewBox="0 0 116 37" version="1.1" xmlns="http://www.w3.org/2000/svg" xmlns:xlink="http://www.w3.org/1999/xlink" xmlns:sketch="http://www.bohemiancoding.com/sketch/ns">
    <!-- Generator: Sketch 3.2.2 (9983) - http://www.bohemiancoding.com/sketch -->
    <title>Artboard 29</title>
    <desc>Created with Sketch.</desc>
    <defs>
        <path id="path-1" d="M0,12 L115.997238,12 L115.997238,0.00533333333 L0,0.00533333333"></path>
    </defs>
    <g id="Courses" stroke="none" stroke-width="1" fill="none" fill-rule="evenodd" sketch:type="MSPage">
        <g id="Artboard-29" sketch:type="MSArtboardGroup">
            <g id="payanyway_logo\" sketch:type="MSLayerGroup" transform="translate(0.000000, 12.000000)">
                <g id="Group-10">
                    <mask id="mask-2" sketch:name="Clip 2" fill="white">
                        <use xlink:href="#path-1"></use>
                    </mask>
                    <g id="Clip-2"></g>
                    <path d="M82.2909524,6.06666667 L80.7304762,9.09333333 C80.302381,9.93333333 79.8604762,10.76 79.46,11.6133333 C79.3080952,11.9333333 79.0871429,11.9733333 78.7557143,11.9733333 C78.4242857,11.9733333 78.2171429,11.9333333 78.0514286,11.6266667 C76.2561905,8.14666667 74.4471429,4.66666667 72.6242857,1.21333333 C72.3619048,0.706666667 72.7209524,0.44 73.0247619,0.213333333 C73.3285714,-0.0266666667 74.0190476,0.253333333 74.212381,0.626666667 L78.4795238,8.82666667 C78.562381,9.01333333 78.6038095,9.22666667 78.852381,9.37333333 C79.6671429,7.78666667 80.4680952,6.2 81.2966667,4.64 C81.4209524,4.4 81.3380952,4.24 81.2414286,4.05333333 L79.8604762,1.37333333 C79.6257143,0.906666667 79.7638095,0.346666667 80.1504762,0.186666667 C80.5509524,0.0133333333 81.1585714,0.293333333 81.4071429,0.773333333 L85.7985714,9.25333333 C86.0885714,9.22666667 86.0747619,8.98666667 86.157619,8.84 L90.3280952,0.68 C90.5490476,0.253333333 91.2257143,-0.0533333333 91.5433333,0.186666667 C91.8885714,0.453333333 92.0957143,0.786666667 91.8471429,1.28 C90.0795238,4.68 88.3533333,8.09333333 86.6271429,11.5066667 C86.4614286,11.84 86.2819048,11.9866667 85.867619,11.9866667 C85.4395238,11.9866667 85.26,11.84 85.0942857,11.5066667 C84.1966667,9.72 83.257619,7.94666667 82.2909524,6.06666667" id="Fill-1" fill="#1A1A1A" sketch:type="MSShapeGroup" mask="url(#mask-2)"></path>
                    <path d="M46.5933333,3.13333333 L46.5933333,11.0133333 C46.5933333,11.5466667 46.2204762,11.9733333 45.7785714,11.9733333 C45.3228571,11.9733333 44.9361905,11.5466667 44.9361905,11.0266667 L44.9361905,0.76 C44.9361905,0.56 44.7842857,0.2 45.1019048,0.173333333 C45.502381,0.12 45.9857143,-0.0533333333 46.3309524,0.346666667 L47.56,1.8 L53.4566667,8.76 C53.6914286,8.56 53.5947619,8.33333333 53.5947619,8.14666667 C53.5947619,5.77333333 53.622381,3.4 53.5809524,1.02666667 C53.5671429,0.44 53.9814286,0.306666667 54.3957143,0.186666667 C54.7685714,0.08 55.2657143,0.6 55.2657143,1.02666667 C55.2657143,4.44 55.2657143,7.86666667 55.2519048,11.2933333 C55.2519048,11.5066667 55.4314286,11.8933333 55.072381,11.9333333 C54.6580952,11.9866667 54.1747619,12.1333333 53.8157143,11.6933333 C52.172381,9.72 50.5152381,7.77333333 48.8580952,5.82666667 L46.5933333,3.13333333" id="Fill-3" fill="#1A1A1A" sketch:type="MSShapeGroup" mask="url(#mask-2)"></path>
                    <path d="M13.5195238,9.42666667 C12.5666667,9.42666667 11.6,9.44 10.6471429,9.41333333 C10.2466667,9.4 10.0119048,9.50666667 9.86,9.85333333 C9.61142857,10.4 9.26619048,10.9066667 9.0452381,11.4533333 C8.82428571,11.9866667 8.36857143,12 7.91285714,11.9333333 C7.55380952,11.88 7.36047619,11.2133333 7.55380952,10.8266667 C9.32142857,7.41333333 11.0890476,4 12.8428571,0.573333333 C12.9947619,0.28 13.1604762,0.12 13.5609524,0.133333333 C13.9614286,0.146666667 14.182381,0.226666667 14.3619048,0.573333333 C16.1157143,4.01333333 17.8971429,7.45333333 19.6647619,10.8933333 C19.8304762,11.2133333 19.5819048,11.8933333 19.2504762,11.9333333 C18.8361905,11.9866667 18.3666667,12.0266667 18.1595238,11.5066667 C17.9385714,10.9733333 17.5933333,10.4933333 17.372381,9.96 C17.1928571,9.54666667 16.9580952,9.38666667 16.4471429,9.41333333 C15.4666667,9.45333333 14.4861905,9.42666667 13.5195238,9.42666667 L13.5195238,9.42666667 Z M13.5885714,2.62666667 L10.7714286,8.05333333 L16.3919048,8.05333333 L13.5885714,2.62666667 L13.5885714,2.62666667 Z" id="Fill-4" fill="#1A1A1A" sketch:type="MSShapeGroup" mask="url(#mask-2)"></path>
                    <path d="M97.0395238,0.16 C97.44,0.0666666667 97.6195238,0.226666667 97.757619,0.52 C99.5390476,3.98666667 101.306667,7.45333333 103.101905,10.8933333 C103.378095,11.4133333 103.019048,11.7466667 102.729048,11.8933333 C102.397619,12.0533333 101.859048,12.0533333 101.624286,11.56 C101.334286,10.96 101.002857,10.3866667 100.712857,9.78666667 C100.588571,9.52 100.422857,9.41333333 100.091429,9.41333333 C98.0338095,9.42666667 95.99,9.42666667 93.9461905,9.41333333 C93.6009524,9.41333333 93.4490476,9.53333333 93.3247619,9.8 C93.0485714,10.3466667 92.7171429,10.88 92.482381,11.4533333 C92.2614286,11.9866667 91.8057143,12 91.3638095,11.9333333 C90.9909524,11.88 90.8114286,11.2 90.9909524,10.8266667 C92.7585714,7.41333333 94.5261905,3.98666667 96.28,0.56 C96.4457143,0.226666667 96.6528571,0.04 97.0395238,0.16 L97.0395238,0.16 Z M97.0257143,2.64 L94.1947619,8.09333333 C96.0038095,8.09333333 97.6747619,8.08 99.3457143,8.09333333 C99.8014286,8.10666667 99.787619,7.97333333 99.6219048,7.66666667 C99.0695238,6.61333333 98.5309524,5.53333333 97.9785714,4.48 L97.0257143,2.64 L97.0257143,2.64 Z" id="Fill-5" fill="#1A1A1A" sketch:type="MSShapeGroup" mask="url(#mask-2)"></path>
                    <path d="M42.7957143,11.9466667 C42.4090476,11.9466667 42.0914286,11.88 41.9395238,11.4666667 C41.7738095,11.0533333 41.47,10.6933333 41.3180952,10.28 C41.0833333,9.6 40.6552381,9.37333333 39.8404762,9.4 C38.0314286,9.46666667 36.222381,9.42666667 34.3995238,9.41333333 C34.0128571,9.41333333 33.8195238,9.50666667 33.667619,9.82666667 C33.3914286,10.4133333 33.0461905,10.96 32.7838095,11.5333333 C32.5490476,12.0533333 32.0242857,12.0533333 31.6928571,11.9066667 C31.3752381,11.76 31.03,11.4133333 31.292381,10.9066667 C33.1014286,7.45333333 34.8828571,4 36.6366667,0.533333333 C36.802381,0.213333333 37.0233333,0.133333333 37.382381,0.133333333 C37.7690476,0.133333333 37.962381,0.226666667 38.1280952,0.546666667 C39.8819048,3.98666667 41.6633333,7.42666667 43.4171429,10.8666667 C43.6795238,11.36 43.3204762,11.96 42.7957143,11.9466667 L42.7957143,11.9466667 Z M37.382381,2.62666667 L34.5652381,8.05333333 L40.1719048,8.05333333 L37.382381,2.62666667 L37.382381,2.62666667 Z" id="Fill-6" fill="#1A1A1A" sketch:type="MSShapeGroup" mask="url(#mask-2)"></path>
                    <path d="M2.20952381,0.0133333333 C3.16238095,0.04 4.1152381,-0.0533333333 5.05428571,0.2 C6.83571429,0.693333333 7.8852381,1.85333333 7.98190476,3.49333333 C8.09238095,5.22666667 7.1947619,6.53333333 5.49619048,7.2 C4.43285714,7.61333333 3.31428571,7.61333333 2.19571429,7.56 C1.76761905,7.53333333 1.60190476,7.62666667 1.61571429,8.05333333 C1.64333333,9.06666667 1.62952381,10.0666667 1.62952381,11.08 C1.61571429,11.4933333 1.13238095,12.04 0.773333333,11.9466667 C0.331428571,11.84 0,11.6533333 0,11.08 C0.0414285714,7.58666667 0.0276190476,4.08 0,0.573333333 C0,0.0666666667 0.17952381,-0.0266666667 0.676666667,0.0133333333 C1.17380952,0.04 1.69857143,0.0133333333 2.20952381,0.0133333333 L2.20952381,0.0133333333 Z M1.61571429,3.77333333 L1.61571429,5.78666667 C1.61571429,5.96 1.56047619,6.18666667 1.89190476,6.2 C2.8447619,6.25333333 3.79761905,6.34666667 4.70904762,6.02666667 C5.7447619,5.65333333 6.3247619,4.74666667 6.24190476,3.64 C6.1452381,2.46666667 5.53761905,1.77333333 4.35,1.50666667 C3.57666667,1.33333333 2.77571429,1.41333333 1.98857143,1.38666667 C1.67095238,1.37333333 1.61571429,1.50666667 1.61571429,1.76 C1.62952381,2.42666667 1.61571429,3.10666667 1.61571429,3.77333333 L1.61571429,3.77333333 Z" id="Fill-7" fill="#1A1A1A" sketch:type="MSShapeGroup" mask="url(#mask-2)"></path>
                    <path d="M24.2219048,8.16 C24.2219048,7.21333333 24.2080952,6.26666667 24.2357143,5.32 C24.2495238,4.93333333 24.097619,4.72 23.7247619,4.53333333 C21.8880952,3.62666667 20.0652381,2.69333333 18.242381,1.77333333 C17.717619,1.50666667 17.4690476,0.986666667 17.7728571,0.653333333 C18.1042857,0.28 18.4909524,0.146666667 19.0433333,0.453333333 C20.8247619,1.4 22.647619,2.29333333 24.4428571,3.24 C24.8709524,3.46666667 25.202381,3.48 25.6442857,3.24 C27.4395238,2.29333333 29.2485714,1.38666667 31.0438095,0.466666667 C31.5409524,0.213333333 32.2038095,0.293333333 32.3557143,0.68 C32.5214286,1.12 32.4661905,1.49333333 31.8861905,1.77333333 C30.0357143,2.65333333 28.2404762,3.61333333 26.39,4.52 C25.9895238,4.72 25.8514286,4.94666667 25.8514286,5.36 C25.8790476,7.25333333 25.837619,9.14666667 25.8928571,11.0266667 C25.9066667,11.6266667 25.5338095,11.8266667 25.0504762,11.9333333 C24.65,12.0266667 24.2219048,11.5333333 24.2219048,11.0533333 L24.2219048,8.16" id="Fill-8" fill="#E25A7E" sketch:type="MSShapeGroup" mask="url(#mask-2)"></path>
                    <path d="M107.838571,8.14666667 C107.838571,7.21333333 107.824762,6.29333333 107.852381,5.37333333 C107.86619,4.96 107.741905,4.73333333 107.327619,4.52 C105.477143,3.62666667 103.681905,2.66666667 101.831429,1.77333333 C101.265238,1.49333333 101.182381,1.13333333 101.348095,0.693333333 C101.5,0.306666667 102.149048,0.2 102.632381,0.453333333 C104.427619,1.37333333 106.250476,2.28 108.031905,3.22666667 C108.501429,3.48 108.860476,3.45333333 109.31619,3.21333333 C111.097619,2.26666667 112.920476,1.37333333 114.701905,0.426666667 C115.240476,0.133333333 115.682381,0.28 115.875714,0.653333333 C116.055238,1.01333333 116.110476,1.48 115.502857,1.77333333 C113.68,2.65333333 111.884762,3.61333333 110.061905,4.49333333 C109.60619,4.72 109.481905,4.98666667 109.481905,5.44 C109.509524,7.30666667 109.495714,9.17333333 109.495714,11.0533333 C109.495714,11.52 109.067619,12.0133333 108.667143,11.9333333 C108.18381,11.84 107.783333,11.64 107.824762,11.04 C107.89381,10.08 107.838571,9.10666667 107.838571,8.14666667" id="Fill-9" fill="#F3BE58" sketch:type="MSShapeGroup" mask="url(#mask-2)"></path>
                </g>
                <path d="M63.2061905,8.14666667 C63.2061905,7.24 63.1647619,6.33333333 63.22,5.44 C63.247619,4.93333333 63.0266667,4.69333333 62.5709524,4.46666667 C60.7619048,3.58666667 58.9942857,2.66666667 57.2128571,1.76 C56.7019048,1.50666667 56.4809524,1 56.7019048,0.64 C56.9366667,0.293333333 57.5166667,0.213333333 58.0414286,0.493333333 C59.8090476,1.38666667 61.5766667,2.28 63.3166667,3.21333333 C63.827619,3.48 64.2004762,3.46666667 64.697619,3.2 C66.4652381,2.25333333 68.2466667,1.36 70.0280952,0.44 C70.4838095,0.213333333 71.1604762,0.306666667 71.2847619,0.666666667 C71.4090476,1.09333333 71.4228571,1.48 70.8290476,1.77333333 C69.0338095,2.64 67.2661905,3.57333333 65.4709524,4.45333333 C65.0014286,4.68 64.8080952,4.93333333 64.8219048,5.42666667 C64.8495238,7.28 64.8357143,9.12 64.8357143,10.9733333 C64.8219048,11.48 64.4352381,11.9466667 64.0071429,11.96 C63.5928571,11.96 63.2061905,11.4933333 63.2061905,10.9733333 L63.2061905,8.14666667" id="Fill-11" fill="#81BE57" sketch:type="MSShapeGroup"></path>
            </g>
        </g>
    </g>
</svg>