<?xml version="1.0" encoding="UTF-8" standalone="no"?>
<svg width="116px" height="37px" viewBox="0 0 116 37" version="1.1" xmlns="http://www.w3.org/2000/svg" xmlns:xlink="http://www.w3.org/1999/xlink" xmlns:sketch="http://www.bohemiancoding.com/sketch/ns">
    <!-- Generator: Sketch 3.2.2 (9983) - http://www.bohemiancoding.com/sketch -->
    <title>Artboard 30</title>
    <desc>Created with Sketch.</desc>
    <defs>
        <path id="path-1" d="M0,29.8096326 L115.221479,29.8096326 L115.221479,0.032264417 L0,0.032264417 L0,29.8096326 L0,29.8096326 Z"></path>
    </defs>
    <g id="Courses" stroke="none" stroke-width="1" fill="none" fill-rule="evenodd" sketch:type="MSPage">
        <g id="Artboard-30" sketch:type="MSArtboardGroup">
            <g id="PayPal_logo" sketch:type="MSLayerGroup" transform="translate(0.000000, 4.000000)">
                <g id="layer1" transform="translate(0.111216, 0.189975)">
                    <g id="g2993" transform="translate(57.888785, 15.347739) scale(1, -1) translate(-57.888785, -15.347739) translate(0.278046, 0.291011)">
                        <g id="g2995" transform="translate(76.960480, 6.942227)" fill="#336699" sketch:type="MSShapeGroup">
                            <path d="M11.2020882,4.83966255 C10.8084148,4.58961332 10.3923373,4.37559269 9.95652271,4.19329873 C9.37081353,3.95507979 8.81551001,3.83032404 8.30181425,3.83032404 C7.51340061,3.83032404 6.90742098,3.94271176 6.49774461,4.18308167 C6.08753481,4.41108355 5.8725614,4.80739813 5.87949603,5.37471413 C5.87949603,6.0296818 6.02939063,6.53784637 6.33984851,6.93631192 C6.65244011,7.31972074 7.11706006,7.62838366 7.69316745,7.8585365 C8.26607425,8.05427397 8.97073895,8.21559605 9.78422393,8.33121021 C10.5075588,8.4231638 11.937692,8.58932555 12.1206595,8.59040103 C12.3036269,8.59201425 12.4252496,8.69364716 12.3436344,8.20215254 C12.3073609,7.98866965 11.894484,6.27973103 11.7051153,5.50269632 C11.6501718,5.26985478 11.3429145,4.93054066 11.2020882,4.83966255 L11.2020882,4.83966255 Z M16.8148679,16.8506295 C15.6103767,17.5281823 13.7262921,17.8707228 11.1482115,17.8707228 C9.8733072,17.8707228 8.59200168,17.7674767 7.30642869,17.5663618 C6.36278612,17.4206342 6.26570135,17.3964359 5.67945874,17.267916 C4.47336724,17.0033478 4.2871992,15.7859038 4.2871992,15.7859038 L3.899927,14.1802113 C3.6801527,13.1531273 4.26052756,13.1956088 4.51924245,13.2751944 C5.0457406,13.435441 5.33112713,13.5946121 6.40546074,13.8398217 C7.43231883,14.0748142 8.51732109,14.2506553 9.38308248,14.2436646 C10.6526525,14.2436646 11.6181658,14.1033144 12.2598854,13.8333688 C12.9021385,13.5510551 13.2200644,13.0703153 13.2200644,12.3825455 C13.2221981,12.2190725 13.2264656,12.064741 13.167788,11.9297682 C13.1149782,11.803937 13.0136259,11.6824077 12.7101027,11.6410017 C10.8980316,11.5323781 9.59752245,11.3656786 8.03136383,11.1355258 C6.48600909,10.9161278 5.13375701,10.5402473 4.00341296,10.0197147 C2.79838833,9.48089894 1.89688694,8.75978922 1.27543776,7.84616848 C0.670524996,6.92824581 0.366468315,5.81673665 0.364868017,4.50733906 C0.364868017,3.26999866 0.80601692,2.26066015 1.65950936,1.47717256 C2.52313702,0.703902031 3.64654644,0.321030949 5.00573314,0.321030949 C5.85495812,0.326946092 6.51961535,0.388786225 6.99597082,0.508702308 C7.46752539,0.628618391 7.98175458,0.799082061 8.52478915,1.03622553 C8.93073149,1.20722694 9.36867979,1.45458747 9.83116601,1.76486361 C10.2941857,2.07621523 10.6147788,2.29722649 11.0260554,2.56878533 L11.0409915,2.5429738 L10.9252366,2.02835635 C10.9247032,2.02351669 10.9177686,2.02082799 10.9177686,2.01598832 L10.9215026,2.006309 C10.7892113,1.38629445 11.1588802,0.870601519 11.7680604,0.809836867 L11.7755285,0.799082061 L11.8294052,0.799082061 L11.8315389,0.79639336 C12.235881,0.79639336 13.623873,0.7969311 14.2725273,0.799082061 L14.7254117,0.799082061 C14.7552839,0.799082061 14.7584845,0.808223646 14.7702201,0.81521427 C15.3922027,0.89211113 15.9885805,1.4029644 16.1288733,2.01598832 L18.4455719,12.0959299 C18.4989151,12.3330734 18.5410563,12.6067832 18.5661277,12.921899 C18.594933,13.2402413 18.6290727,13.5021208 18.6189375,13.6914054 C18.6242718,15.1180303 18.0161585,16.172539 16.8148679,16.8506295 L16.8148679,16.8506295 Z" id="path2997"></path>
                        </g>
                        <g id="g2999">
                            <g id="g3001-Clipped">
                                <mask id="mask-2" sketch:name="path3005" fill="white">
                                    <use xlink:href="#path-1"></use>
                                </mask>
                                <g id="path3005"></g>
                                <g id="g3001" mask="url(#mask-2)">
                                    <g transform="translate(-0.533433, -0.537740)">
                                        <g id="g3007" transform="translate(39.517767, 0.391475)">
                                            <path d="M14.9361176,24.736053 C14.2565243,24.736053 13.3651581,24.1816428 12.9432128,23.5116184 C12.9432128,23.5116184 8.39729871,15.6552329 7.95081548,14.8701321 C7.70810357,14.4480059 7.46219106,14.7163383 7.42111674,14.8733585 C7.38804391,15.0642563 6.01232079,23.4599954 6.01232079,23.4599954 C5.85762528,24.1359349 5.15722805,24.7161567 4.28133144,24.713468 L1.44666968,24.709166 C0.763342298,24.709166 0.337129513,24.1574445 0.489157853,23.4906465 C0.489157853,23.4906465 2.65596178,11.1097143 3.07844053,8.19785062 C3.28914648,6.58731847 3.05656979,6.30177838 3.05656979,6.30177838 L0.247512807,1.3642471 C-0.163763861,0.694760446 0.0613447689,0.146265357 0.741471555,0.146265357 L4.02635057,0.148954059 C4.70647736,0.148954059 5.60744531,0.694760446 6.01232079,1.36532258 L18.6493432,22.9109625 C18.6493432,22.9109625 19.8581018,24.7516475 18.7432274,24.736053 C17.9830856,24.7252982 14.9361176,24.736053 14.9361176,24.736053" id="path3009" fill="#1C3664" sketch:type="MSShapeGroup"></path>
                                        </g>
                                        <g id="g3011" transform="translate(0.073080, 8.320993)">
                                            <path d="M21.3373109,18.8209099 C20.9431041,19.5963314 20.3520606,20.2260253 19.5977867,20.7013877 C18.8152408,21.1880427 17.9052045,21.5235926 16.8442067,21.7257829 C15.7768077,21.9188317 14.5301753,22.013474 13.100042,22.0263798 L6.4780076,22.0215401 C5.78987932,22.013474 5.11562029,21.4692808 4.95665733,20.8024829 L0.491291584,1.23357621 C0.337662945,0.564089557 0.767609761,0.0107548057 1.45307087,0.0107548057 L4.62539558,0.0107548057 C5.31139012,0.0107548057 5.99098348,0.54957057 6.14514555,1.23357621 L7.2381493,5.98236065 C7.38430988,6.6464699 8.06230293,7.19604047 8.74989778,7.19604047 L9.65673349,7.19604047 C13.5363901,7.19980466 16.5454843,7.9999622 18.7080208,9.60135276 C20.8673567,11.1995169 21.947558,13.3182136 21.9422237,15.9380843 C21.947558,17.0888485 21.7496545,18.0519413 21.3373109,18.8209099 M14.4875007,12.427178 C13.5310557,11.7222004 12.2054753,11.3689051 10.4846212,11.3689051 L9.70687617,11.3689051 C9.02141506,11.3689051 8.58880108,11.9168624 8.73976256,12.5901133 L9.69460722,16.7382418 C9.84023437,17.406653 10.5240952,17.9610632 11.2095563,17.9546103 L12.2476165,17.9610632 C13.4601092,17.9610632 14.381881,17.7518822 15.0038636,17.3356713 C15.6167779,16.9307528 15.9283026,16.2913796 15.917634,15.4315329 C15.9357707,14.1366543 15.4487465,13.1343064 14.4875007,12.427178" id="path3013" fill="#1C3664" sketch:type="MSShapeGroup"></path>
                                        </g>
                                    </g>
                                </g>
                            </g>
                        </g>
                        <g id="g3015" transform="translate(57.134917, 7.711733)" fill="#336699" sketch:type="MSShapeGroup">
                            <path d="M21.3373109,18.8209099 C20.9420372,19.5963314 20.345126,20.2206479 19.5903186,20.7067651 C18.8163076,21.1918068 17.8966695,21.5300455 16.8319377,21.7273962 C15.7789414,21.9134543 14.5269747,22.0199269 13.1005755,22.0231533 L6.46360491,22.0199269 C5.78027753,22.0080966 5.10975253,21.4671299 4.95185643,20.8008696 L0.489691286,1.22604785 C0.32699429,0.560863116 0.770810357,0.0064528834 1.44186879,0.0102170654 L4.62646244,0.0161322085 C5.30178833,0.0102170654 5.98991661,0.560863116 6.14941301,1.22604785 L7.22588035,5.97644551 C7.37684182,6.64216798 8.0633698,7.19980466 8.74989778,7.19012533 L9.65513319,7.19012533 C13.5395906,7.19012533 16.5513521,7.9945848 18.7080208,9.59597536 C20.8593552,11.205432 21.9422237,13.3166004 21.9422237,15.9423862 C21.9352891,17.0888485 21.741653,18.05463 21.3373109,18.8209099 M14.4901678,12.4185741 C13.5395906,11.7216627 12.2054753,11.3721315 10.4888886,11.3721315 L9.69940811,11.3721315 C9.01661416,11.3640654 8.57546526,11.9206266 8.73762882,12.5879623 L9.68927289,16.7425437 C9.83116601,17.3996624 10.5240952,17.9589122 11.1972873,17.9535348 L12.2401484,17.9589122 C13.457442,17.9535348 14.3680117,17.7481181 14.996929,17.3399732 C15.6151776,16.9269886 15.9149668,16.28654 15.9197677,15.4331461 C15.9224348,14.1323524 15.4450125,13.1316177 14.4901678,12.4185741" id="path3017"></path>
                        </g>
                        <g id="g3019" transform="translate(19.352941, 6.957284)" fill="#1C3664" sketch:type="MSShapeGroup">
                            <path d="M11.2020882,4.83966255 C10.8084148,4.58961332 10.3928707,4.37666817 9.95705614,4.19383647 C9.37134696,3.95669301 8.81337628,3.83086178 8.30128082,3.83086178 C7.51500091,3.83086178 6.90742098,3.94378724 6.49721118,4.18308167 C6.08753481,4.41162129 5.87149453,4.80793588 5.87842916,5.37578961 C5.87842916,6.02914406 6.02992407,6.53892185 6.33984851,6.93684966 C6.65297355,7.32079622 7.11545976,7.62999688 7.69156716,7.85961198 C8.26607425,8.05642493 8.97287268,8.21559605 9.78369049,8.33121021 C10.5070253,8.4231638 11.9387589,8.58878781 12.1211929,8.59147651 C12.30256,8.59201425 12.4247162,8.69472264 12.3431009,8.20322803 C12.3078944,7.98974513 11.894484,6.27973103 11.7051153,5.50323406 C11.648038,5.26931704 11.3407808,4.93000292 11.2020882,4.83966255 L11.2020882,4.83966255 Z M16.8148679,16.8511673 C15.6103767,17.52872 13.7268256,17.8707228 11.148745,17.8707228 C9.8733072,17.8707228 8.59253511,17.7685522 7.30642869,17.5668996 C6.36118582,17.4222474 6.26623479,17.3975114 5.67945874,17.2689915 C4.4728338,17.0033478 4.2871992,15.7869792 4.2871992,15.7869792 L3.899927,14.1802113 C3.68068613,13.1536651 4.26159442,13.1961466 4.51924245,13.2757321 C5.04467374,13.4359787 5.33166057,13.5946121 6.40599417,13.8408972 C7.43125196,14.0748142 8.51785452,14.2501175 9.38254905,14.2442024 C10.6531859,14.2442024 11.6176324,14.1043899 12.259352,13.8344443 C12.9021385,13.5521306 13.2184641,13.0703153 13.2184641,12.3830832 C13.2227316,12.2196102 13.2259322,12.064741 13.1688549,11.9308437 C13.1149782,11.803937 13.0125591,11.6829454 12.7090358,11.6420771 C10.8990984,11.5318404 9.59912275,11.3656786 8.03029697,11.1355258 C6.48494222,10.9161278 5.13322358,10.5402473 4.0023461,10.0202524 C2.79732146,9.48143668 1.89688694,8.75925148 1.27650463,7.84616848 C0.66945813,6.92878355 0.365934882,5.81727439 0.364868017,4.50733906 C0.364868017,3.2705364 0.806550353,2.26066015 1.65897592,1.4777103 C2.52313702,0.704439771 3.64547957,0.321030949 5.00466628,0.321030949 C5.85442469,0.326946092 6.51854849,0.389861706 6.99650425,0.508702308 C7.46752539,0.629693872 7.98228802,0.799082061 8.52318885,1.03622553 C8.93073149,1.20722694 9.36761293,1.45566295 9.83063258,1.76540135 C10.2925854,2.07621523 10.6147788,2.29722649 11.0276557,2.56878533 L11.0404581,2.54351154 L10.9247032,2.02943183 C10.9236363,2.02459217 10.9172351,2.02136573 10.9172351,2.01545058 L10.922036,2.00738448 C10.7897447,1.38575671 11.1583467,0.870601519 11.7680604,0.810912348 L11.7755285,0.799082061 L11.8288717,0.799082061 L11.830472,0.795317879 C12.235881,0.795317879 13.6244065,0.79746884 14.2714604,0.799082061 L14.7248783,0.799082061 C14.7552839,0.799082061 14.7595514,0.809299127 14.7691532,0.81575201 C15.3927361,0.894799832 15.9869802,1.40457762 16.1288733,2.01545058 L18.4455719,12.0964677 C18.4978483,12.3330734 18.5405229,12.6067832 18.5639939,12.9213613 C18.594933,13.2413167 18.6285393,13.5021208 18.6194709,13.6908676 C18.6248053,15.1185681 18.015625,16.1730768 16.8148679,16.8511673 L16.8148679,16.8511673 Z" id="path3021"></path>
                        </g>
                        <g id="g3023" transform="translate(95.644496, 7.526751)" fill="#336699" sketch:type="MSShapeGroup">
                            <path d="M9.06835714,22.0473516 L6.22996136,22.0473516 C6.22836106,22.0473516 6.22676076,22.0468139 6.2256939,22.0468139 L6.2240936,22.0473516 C5.57437248,22.0473516 4.91504957,21.5456399 4.73101527,20.9073422 C4.72354721,20.8815307 4.71074482,20.8567946 4.70487706,20.8299076 C4.70487706,20.8299076 4.6371311,20.518556 4.51977589,19.980278 L0.620915748,2.16494238 C0.530765609,1.76217491 0.470487706,1.49975765 0.452350992,1.43146463 L0.45981905,1.42178531 C0.324860559,0.799082061 0.696129769,0.28392687 1.30584343,0.226388659 L1.31384492,0.214558373 L4.25999413,0.214558373 C4.90544778,0.214558373 5.56050323,0.711430395 5.75040529,1.34166201 C5.75947365,1.3723132 5.77387634,1.40081344 5.78081096,1.43146463 L10.0338705,20.8309831 L10.0274693,20.8331341 C10.1720296,21.4967056 9.7479505,22.0473516 9.06835714,22.0473516" id="path3025"></path>
                        </g>
                        <g id="g3027" transform="translate(107.953457, 25.086660)" fill="#336699" sketch:type="MSShapeGroup">
                            <path d="M2.13373109,0.537740284 C2.03717976,0.51192875 1.93156007,0.490419139 1.81580516,0.47374919 C1.70058368,0.457616981 1.59709772,0.448475396 1.50801445,0.448475396 C1.19115538,0.448475396 0.9521775,0.534513842 0.788413639,0.704977512 C0.624116345,0.875978922 0.54250113,1.15022647 0.54250113,1.52718241 L0.54250113,3.18180926 L0.190968933,3.18180926 L0.190968933,3.62275629 L0.54250113,3.62275629 L0.54250113,4.51701838 L1.06153122,4.51701838 L1.06153122,3.62275629 L2.13373109,3.62275629 L2.13373109,3.18180926 L1.06153122,3.18180926 L1.06153122,1.76378813 C1.06153122,1.60085282 1.06633211,1.47287064 1.07273331,1.38091705 C1.0807348,1.28842572 1.10633957,1.20292501 1.15061449,1.12333945 C1.19062195,1.04859355 1.24609896,0.994819525 1.31757895,0.960404146 C1.38905894,0.925451028 1.49734579,0.908243339 1.64297294,0.908243339 C1.72725532,0.908243339 1.81580516,0.921149106 1.90862246,0.946422899 C1.99983947,0.971158952 2.06651856,0.992130823 2.10705945,1.00880077 L2.13373109,1.00880077 L2.13373109,0.537740284" id="path3029"></path>
                        </g>
                        <g id="g3031" transform="translate(110.420584, 25.059235)" fill="#336699" sketch:type="MSShapeGroup">
                            <path d="M4.80089496,0.537740284 L4.28186487,0.537740284 L4.28186487,2.31013226 C4.28186487,2.44349185 4.27546368,2.57308726 4.26319472,2.69730526 C4.25092577,2.82206101 4.22478756,2.92100522 4.18691384,2.99575112 C4.14423921,3.07533668 4.08396131,3.13610133 4.00447983,3.17643185 C3.92499834,3.21730012 3.81137716,3.23773425 3.66201599,3.23773425 C3.51585541,3.23773425 3.37129513,3.20116791 3.22513455,3.12749749 C3.0795074,3.05436481 2.93441369,2.96133574 2.78878654,2.84787254 C2.79412087,2.80485332 2.79838833,2.75538121 2.80212236,2.69838074 C2.80638982,2.64191801 2.80799012,2.58599302 2.80799012,2.53006803 L2.80799012,0.537740284 L2.28896003,0.537740284 L2.28896003,2.31013226 C2.28896003,2.44779377 2.2820254,2.57792692 2.27028988,2.70160718 C2.25855436,2.82528745 2.23241616,2.92369392 2.19454243,2.99790208 C2.15133437,3.07802538 2.09052304,3.13771455 2.01104155,3.17804508 C1.9320935,3.21783786 1.81793889,3.23773425 1.66857771,3.23773425 C1.5266846,3.23773425 1.38532491,3.20224339 1.2418315,3.13179941 C1.09887151,3.06135543 0.956978395,2.97155281 0.814551845,2.86185379 L0.814551845,0.537740284 L0.294454891,0.537740284 L0.294454891,3.65018104 L0.814551845,3.65018104 L0.814551845,3.30495178 C0.97724884,3.44046233 1.13887897,3.54639717 1.29997567,3.62275629 C1.46213923,3.69803993 1.63230429,3.73675723 1.81527173,3.73675723 C2.02491081,3.73675723 2.20361079,3.69212479 2.3503048,3.60339764 C2.49646538,3.51359501 2.6058191,3.39045249 2.67783252,3.23235684 C2.8874716,3.41088662 3.0795074,3.53994429 3.25287305,3.61845437 C3.42570527,3.69696445 3.61080644,3.73675723 3.80817657,3.73675723 C4.14743981,3.73675723 4.39761978,3.63297336 4.55871648,3.42648109 C4.71981318,3.21891334 4.80089496,2.92960906 4.80089496,2.55803053 L4.80089496,0.537740284" id="path3033"></path>
                        </g>
                    </g>
                </g>
            </g>
        </g>
    </g>
</svg>