<?xml version="1.0" encoding="UTF-8" standalone="no"?>
<svg width="116px" height="37px" viewBox="0 0 116 37" version="1.1" xmlns="http://www.w3.org/2000/svg" xmlns:xlink="http://www.w3.org/1999/xlink" xmlns:sketch="http://www.bohemiancoding.com/sketch/ns">
    <!-- Generator: Sketch 3.2.2 (9983) - http://www.bohemiancoding.com/sketch -->
    <title>Artboard 34</title>
    <desc>Created with Sketch.</desc>
    <defs>
        <radialGradient cx="57.7032432%" cy="87.6744292%" fx="57.7032432%" fy="87.6744292%" r="63.2767568%" id="radialGradient-1">
            <stop stop-color="#52A347" offset="0%"></stop>
            <stop stop-color="#83B03E" offset="50.2%"></stop>
            <stop stop-color="#2EA64C" offset="70.59%"></stop>
            <stop stop-color="#264122" offset="92.94%"></stop>
            <stop stop-color="#264122" offset="93.33%"></stop>
        </radialGradient>
        <radialGradient cx="53.2520245%" cy="32.8278509%" fx="53.2520245%" fy="32.8278509%" r="57.4547239%" id="radialGradient-2">
            <stop stop-color="#52A347" offset="0%"></stop>
            <stop stop-color="#83B03E" offset="50.2%"></stop>
            <stop stop-color="#2B9940" offset="70.59%"></stop>
            <stop stop-color="#264122" offset="92.94%"></stop>
            <stop stop-color="#264122" offset="93.33%"></stop>
        </radialGradient>
    </defs>
    <g id="Courses" stroke="none" stroke-width="1" fill="none" fill-rule="evenodd" sketch:type="MSPage">
        <g id="Artboard-34" sketch:type="MSArtboardGroup">
            <g id="Shape-+-Shape-+-Shape-2" sketch:type="MSLayerGroup" transform="translate(0.000000, 7.000000)">
                <path d="M111.878173,3.565 L114.616244,3.565 C114.125157,3.83295 113.46802,4.34125 112.643066,5.08875 L109.905584,7.82 L111.407107,9.91875 C112.977523,12.10375 114.351269,13.77125 115.528934,14.92125 L111.613198,14.92125 C111.122701,13.8092 110.484406,12.67875 109.699492,11.52875 L107.932995,8.94125 L109.464548,7.04375 C110.837706,5.299775 111.64264,4.14 111.878173,3.565 L111.878173,3.565 Z M107.726904,4.83 L107.726904,13.6275 L107.84467,14.28875 C107.922985,14.40375 108.100223,14.499775 108.37403,14.57625 L108.37403,14.92125 L104.576061,14.92125 L104.576061,14.57625 L105.10601,14.28875 C105.184325,14.17375 105.223777,13.953525 105.223777,13.6275 L105.223777,4.83 L105.10601,4.1975 C105.027695,4.063525 104.850457,3.977275 104.576061,3.93875 L104.576061,3.565 L108.37403,3.565 L108.37403,3.93875 C108.099635,3.9767 107.922396,4.063525 107.84467,4.1975 L107.726904,4.83 L107.726904,4.83 Z M102.074112,4.83 L102.074112,13.6275 L102.191878,14.28875 L102.721827,14.57625 L102.721827,14.92125 L98.8944162,14.92125 L98.8944162,14.57625 C99.1688122,14.499775 99.3654822,14.40375 99.4832487,14.28875 L99.5709848,13.6275 L99.5709848,9.05625 L95.0958579,9.05625 L95.0958579,13.6275 L95.2136244,14.28875 C95.2925279,14.40375 95.4685888,14.499775 95.7429848,14.57625 L95.7429848,14.92125 L91.886132,14.92125 L91.886132,14.57625 C92.2005685,14.499775 92.3960609,14.40375 92.4749645,14.28875 L92.592731,13.6275 L92.592731,4.83 L92.4749645,4.1975 C92.3960609,4.063525 92.2005685,3.977275 91.886132,3.93875 L91.886132,3.565 L95.7429848,3.565 L95.7429848,3.93875 C95.468,3.9767 95.2919391,4.063525 95.2136244,4.1975 L95.0958579,4.83 L95.0958579,8.30875 L99.5709848,8.30875 L99.5709848,4.83 L99.4832487,4.1975 C99.3654822,4.063525 99.1688122,3.977275 98.8944162,3.93875 L98.8944162,3.565 L102.721827,3.565 L102.721827,3.93875 C102.446843,3.9767 102.270193,4.063525 102.191878,4.1975 L102.074112,4.83 L102.074112,4.83 Z M115.528934,18.88875 L30.3248731,18.88875 L30.3248731,17.7675 L115.528934,17.7675 L115.528934,18.88875 L115.528934,18.88875 Z M83.5553299,3.93875 L83.5553299,3.565 L86.9110863,3.565 C86.9499492,4.0825 87.0883249,4.638525 87.323269,5.2325 L89.7963655,12.0175 C90.2085482,13.206025 90.6107208,14.17375 91.0034721,14.92125 L88.0593096,14.92125 L86.7939086,10.83875 L83.0542335,10.83875 L82.2593096,13.54125 L82.0237766,14.92125 L79.9039797,14.92125 L83.6719188,6.41125 C84.0452386,5.5108 84.2313096,4.897275 84.2313096,4.57125 C84.2324873,4.207275 84.0063756,3.99625 83.5553299,3.93875 L83.5553299,3.93875 Z M84.9390863,5.4625 L83.3492386,10.03375 L86.528934,10.03375 L84.9390863,5.4625 L84.9390863,5.4625 Z M78.9918782,6.0375 L78.3435736,6.0375 L78.1963655,5.54875 C78.0391472,4.992725 77.8036142,4.62875 77.4897665,4.45625 L75.8704772,4.255 L74.3106599,4.255 C73.9567716,4.255 73.7218274,4.3125 73.6040609,4.4275 C73.5063147,4.523525 73.4568528,4.69545 73.4568528,4.945 L73.4568528,7.6475 L74.1045685,7.6475 C75.9888325,7.6475 77.2942741,7.829775 78.0203046,8.19375 C79.0607716,8.692275 79.5807107,9.669775 79.5807107,11.12625 C79.5807107,12.544775 79.1685279,13.560225 78.3435736,14.17375 C77.6175431,14.672275 76.4893401,14.92125 74.9577868,14.92125 L70.306599,14.92125 L70.306599,14.57625 L70.865401,14.28875 L70.9537259,13.6275 L70.9537259,4.83 L70.865401,4.1975 C70.7870863,4.063525 70.6010152,3.977275 70.306599,3.93875 L70.306599,3.565 L78.9918782,3.565 L78.9918782,6.0375 L78.9918782,6.0375 Z M73.4568528,8.36625 L73.4568528,13.225 C73.4568528,13.608525 73.5257462,13.8575 73.6629442,13.9725 C73.8207513,14.126025 74.0951472,14.2025 74.4873096,14.2025 L74.8406091,14.2025 C75.5872487,14.2025 76.1360406,13.95295 76.4899289,13.455 C76.8037766,12.995 76.9609949,12.257275 76.9609949,11.24125 C76.9609949,10.244775 76.7937665,9.5358 76.4598985,9.11375 C76.106599,8.615225 75.4488731,8.36625 74.4873096,8.36625 L73.4568528,8.36625 L73.4568528,8.36625 Z M69.2761421,6.81375 C69.2761421,8.13625 68.8639594,9.085 68.0390051,9.66 C67.3324061,10.158525 66.2336447,10.4075 64.7415431,10.4075 L63.5638782,10.4075 L63.5638782,13.6275 L63.6816447,14.28875 C63.7405279,14.40375 63.926599,14.499775 64.2404467,14.57625 L64.2404467,14.92125 L60.4130355,14.92125 L60.4130355,14.57625 L60.9429848,14.28875 L61.0607513,13.6275 L61.0607513,4.83 L60.9429848,4.1975 C60.8646701,4.063525 60.6874315,3.977275 60.4130355,3.93875 L60.4130355,3.565 L65.2414619,3.565 C66.5563249,3.565 67.5178883,3.756475 68.1267411,4.14 C68.893401,4.638525 69.2761421,5.529775 69.2761421,6.81375 L69.2761421,6.81375 Z M63.7411168,4.37 C63.6233503,4.446475 63.564467,4.618975 63.564467,4.8875 L63.564467,9.68875 L64.742132,9.68875 C65.4681624,9.68875 65.9786802,9.420225 66.2730964,8.88375 C66.5286497,8.404775 66.6558376,7.67625 66.6558376,6.69875 C66.6558376,5.069775 65.9586599,4.255 64.5654822,4.255 L64.271066,4.255 L63.7411168,4.37 L63.7411168,4.37 Z M58.6477157,6.0375 L58.0294416,6.0375 L57.8822335,5.54875 C57.6861523,4.992725 57.4406091,4.62875 57.1461929,4.45625 L55.5563452,4.255 L54.2609137,4.255 L53.7898477,4.37 L53.6720812,4.80125 L53.6720812,8.30875 L55.2030457,8.30875 C56.2629442,8.30875 56.959533,8.19375 57.293401,7.96375 L57.293401,9.40125 C56.9601218,9.17125 56.2629442,9.05625 55.2030457,9.05625 L53.6720812,9.05625 L53.6720812,13.31125 C53.6720812,13.65625 53.7898477,13.896025 54.0253807,14.03 L55.4974619,14.2025 L55.8213198,14.2025 L57.4111675,13.9725 C57.6861523,13.8 57.9022538,13.378525 58.0588832,12.7075 L58.1766497,12.27625 L58.9126904,12.27625 L58.9126904,14.92125 L50.5218274,14.92125 L50.5218274,14.57625 C50.8162437,14.499775 51.0029036,14.40375 51.0812183,14.28875 L51.1989848,13.6275 L51.1989848,4.83 L51.0812183,4.1975 C51.0029036,4.063525 50.8162437,3.977275 50.5218274,3.93875 L50.5218274,3.565 L58.6477157,3.565 L58.6477157,6.0375 L58.6477157,6.0375 Z M48.6081218,6.0375 L47.9898477,6.0375 L47.8426396,5.54875 C47.6659898,4.992725 47.4204467,4.62875 47.106599,4.45625 L45.5461929,4.255 L43.9269036,4.255 C43.5930355,4.255 43.3575025,4.3125 43.2203046,4.4275 C43.1614213,4.523525 43.1319797,4.69545 43.1319797,4.945 L43.1319797,7.6475 L43.7796954,7.6475 C45.6445279,7.6475 46.9493807,7.829775 47.6954315,8.19375 C48.7158782,8.692275 49.2263959,9.669775 49.2263959,11.12625 C49.2263959,12.544775 48.8142132,13.560225 47.9898477,14.17375 C47.2832487,14.672275 46.1544569,14.92125 44.6040609,14.92125 L39.9228426,14.92125 L39.9228426,14.57625 C40.2372792,14.499775 40.4333604,14.40375 40.5116751,14.28875 L40.6294416,13.6275 L40.6294416,4.83 L40.5116751,4.1975 C40.4333604,4.063525 40.2372792,3.977275 39.9228426,3.93875 L39.9228426,3.565 L48.6081218,3.565 L48.6081218,6.0375 L48.6081218,6.0375 Z M36.8903553,4.485 C36.5370558,4.236025 35.9876751,4.11125 35.2416244,4.11125 C34.0639594,4.11125 33.2295838,4.532725 32.7390863,5.37625 C32.3269036,6.104775 32.1208122,7.292725 32.1208122,8.94125 C32.1208122,10.589775 32.346335,11.806475 32.7979695,12.5925 C33.3473503,13.57 34.2894822,14.05875 35.6243655,14.05875 C36.6059492,14.05875 37.5775228,13.82875 38.5390863,13.36875 L38.8923858,14.0875 C37.7736041,14.75795 36.4587411,15.09375 34.9472081,15.09375 C31.2569949,15.09375 29.4121827,13.186475 29.4121827,9.3725 C29.4121827,5.36705 31.3258883,3.36375 35.1532995,3.36375 C36.6253807,3.36375 37.7541726,3.53625 38.5390863,3.88125 L38.5390863,6.23875 L37.8030457,6.23875 L37.5969543,5.54875 C37.439736,5.069775 37.204203,4.715 36.8903553,4.485 L36.8903553,4.485 Z M43.1319797,8.36625 L43.1319797,13.225 C43.1319797,13.608525 43.1908629,13.8575 43.3086294,13.9725 C43.4658477,14.126025 43.7502538,14.2025 44.1624365,14.2025 L44.4862944,14.2025 C45.8994924,14.2025 46.6060914,13.215225 46.6060914,11.24125 C46.6060914,10.244775 46.4394518,9.5358 46.1055838,9.11375 C45.7328528,8.615225 45.0651168,8.36625 44.1035533,8.36625 L43.1319797,8.36625 L43.1319797,8.36625 Z" id="Shape" fill="#006236" sketch:type="MSShapeGroup"></path>
                <path d="M19.284264,1.75375 L20.3147208,2.67375 L7.30152284,9.97625 L1.00101523,6.41125 L1.58984772,5.26125 L7.30152284,8.4525 L19.284264,1.75375 L19.284264,1.75375 Z M16.6639594,0.2875 L18.0477157,0.9775 L7.30152284,7.015 L2.2964467,4.22625 L3.15025381,3.22 L7.30152284,5.54875 L16.6639594,0.2875 L16.6639594,0.2875 Z M21.2274112,3.6225 L21.9928934,4.62875 L7.30152284,12.88 L0.206091371,8.9125 L0.529949239,7.6475 L7.30152284,11.4425 L21.2274112,3.6225 L21.2274112,3.6225 Z" id="Shape" fill="url(#radialGradient-1)" sketch:type="MSShapeGroup"></path>
                <path d="M23.3472081,7.33125 C23.7788223,8.519775 23.9949239,9.765225 23.9949239,11.06875 C23.9949239,12.372275 23.7788223,13.637275 23.3472081,14.86375 L23.0527919,15.640575 C22.4445279,17.03955 21.5907208,18.285575 20.4913706,19.378075 C19.3725888,20.451025 18.0971777,21.275575 16.6639594,21.850575 C15.1530152,22.483075 13.5926091,22.799325 11.9827411,22.799325 C10.3534416,22.799325 8.79303553,22.4825 7.30152284,21.850575 C5.90775635,21.275575 4.6417665,20.451025 3.5035533,19.378075 C2.38477157,18.285575 1.53096447,17.03955 0.94213198,15.640575 C0.313847716,14.163975 0,12.640225 0,11.06875 L0,10.2925 L7.30152284,14.34625 L22.6994924,5.72125 L23.3472081,7.33125 L23.3472081,7.33125 Z" id="Shape" fill="url(#radialGradient-2)" sketch:type="MSShapeGroup"></path>
            </g>
        </g>
    </g>
</svg>