<?xml version="1.0" encoding="UTF-8" standalone="no"?>
<svg width="80px" height="37px" viewBox="0 0 80 37" version="1.1" xmlns="http://www.w3.org/2000/svg" xmlns:xlink="http://www.w3.org/1999/xlink" xmlns:sketch="http://www.bohemiancoding.com/sketch/ns">
    <!-- Generator: Sketch 3.2.2 (9983) - http://www.bohemiancoding.com/sketch -->
    <title>Artboard 33</title>
    <desc>Created with Sketch.</desc>
    <defs>
        <path id="path-1" d="M0.0432432432,0.0286956522 L80,0.0286956522 L80,33 L0.0432432432,33 L0.0432432432,0.0286956522 Z"></path>
        <path id="path-3" d="M0.0432432432,0.0286956522 L80,0.0286956522 L80,33 L0.0432432432,33"></path>
    </defs>
    <g id="Courses" stroke="none" stroke-width="1" fill="none" fill-rule="evenodd" sketch:type="MSPage">
        <g id="Artboard-33" sketch:type="MSArtboardGroup">
            <g id="yandex-2" sketch:type="MSLayerGroup" transform="translate(0.000000, 1.000000)">
                <g id="Group-3">
                    <mask id="mask-2" sketch:name="Clip 2" fill="white">
                        <use xlink:href="#path-1"></use>
                    </mask>
                    <g id="Clip-2"></g>
                    <path d="M7.64684685,0 L5.87387387,0 C4.12972973,0 2.65225225,1.29130435 2.65225225,3.795 C2.65225225,5.30152174 3.36576577,6.41347826 4.64144144,6.95869565 L2.26306306,11.1482609 C2.18378378,11.2845652 2.26306306,11.3921739 2.38558559,11.3921739 L3.48828829,11.3921739 C3.58198198,11.3921739 3.64684685,11.3634783 3.67567568,11.2845652 L5.84504505,7.17391304 L6.62342342,7.17391304 L6.62342342,11.2845652 C6.62342342,11.3347826 6.66666667,11.3921739 6.73153153,11.3921739 L7.6972973,11.3921739 C7.79099099,11.3921739 7.81981982,11.3491304 7.81981982,11.2702174 L7.81981982,0.150652174 C7.81981982,0.0430434783 7.75495495,0 7.64684685,0 L7.64684685,0 Z M6.62342342,6.19826087 L5.96756757,6.19826087 C4.93693694,6.19826087 3.94234234,5.46652174 3.94234234,3.64434783 C3.94234234,1.75043478 4.87927928,0.975652174 5.82342342,0.975652174 L6.62342342,0.975652174 L6.62342342,6.19826087 L6.62342342,6.19826087 Z" id="Fill-1" fill="#EC1B23" sketch:type="MSShapeGroup" mask="url(#mask-2)"></path>
                </g>
                <path d="M13.5063063,3.77347826 L12.5405405,3.77347826 C12.4612613,3.77347826 12.4108108,3.83804348 12.4108108,3.88108696 L12.4108108,6.78652174 L10.6234234,6.78652174 L10.6234234,3.88108696 C10.6234234,3.80934783 10.5945946,3.77347826 10.5153153,3.77347826 L9.54954955,3.77347826 C9.47027027,3.77347826 9.41981982,3.82369565 9.41981982,3.88108696 L9.41981982,11.2630435 C9.41981982,11.3419565 9.45585586,11.385 9.53513514,11.385 L10.5153153,11.385 C10.572973,11.385 10.6234234,11.3419565 10.6234234,11.2630435 L10.6234234,7.74065217 L12.4108108,7.74065217 L12.4108108,11.2630435 C12.4108108,11.3419565 12.4612613,11.385 12.5405405,11.385 L13.5063063,11.385 C13.5855856,11.385 13.6144144,11.3276087 13.6144144,11.2630435 L13.6144144,3.88108696 C13.6144144,3.82369565 13.563964,3.77347826 13.5063063,3.77347826" id="Fill-4" fill="#161617" sketch:type="MSShapeGroup"></path>
                <path d="M35.5531532,10.9043478 L35.4306306,10.3806522 C35.4162162,10.3376087 35.4018018,10.3232609 35.3513514,10.3232609 C35.2792793,10.3232609 34.8540541,10.4882609 34.2486486,10.4882609 C33.0666667,10.4882609 32.4900901,9.38347826 32.4900901,7.61869565 C32.4900901,6.06913043 32.972973,4.53391304 33.7801802,4.53391304 C33.9963964,4.53391304 34.2630631,4.59847826 34.6810811,4.97869565 C34.7315315,5.02173913 34.7603604,5.03608696 34.8108108,5.03608696 C34.8540541,5.03608696 34.9045045,5.0073913 34.9477477,4.92847826 L35.372973,4.26130435 C35.4018018,4.21826087 35.4162162,4.16804348 35.4162162,4.125 C35.4162162,4.0676087 35.3513514,4.0173913 35.2576577,3.97434783 C34.6234234,3.65869565 34.1837838,3.59413043 33.809009,3.59413043 C32.3459459,3.59413043 31.2072072,5.29434783 31.2072072,7.95586957 C31.2072072,10.2443478 32.3027027,11.5715217 33.8594595,11.5715217 C34.5153153,11.5715217 35.2144144,11.2630435 35.4954955,11.0693478 C35.5531532,11.0191304 35.5747748,10.9617391 35.5531532,10.9043478" id="Fill-5" fill="#161617" sketch:type="MSShapeGroup"></path>
                <path d="M28.7855856,7.20978261 L30.6522523,3.88108696 C30.6882883,3.83804348 30.6738739,3.77347826 30.609009,3.77347826 L29.6864865,3.77347826 C29.427027,3.77347826 29.3333333,3.86673913 29.2396396,4.0676087 L27.8342342,6.90847826 C27.754955,7.07347826 27.6828829,7.18108696 27.6036036,7.22413043 L27.6036036,3.88108696 C27.6036036,3.82369565 27.5675676,3.77347826 27.5099099,3.77347826 L26.4936937,3.77347826 C26.4504505,3.77347826 26.4,3.82369565 26.4,3.88108696 L26.4,11.2773913 C26.4,11.3276087 26.436036,11.385 26.4936937,11.385 L27.5099099,11.385 C27.5675676,11.385 27.6036036,11.3419565 27.6036036,11.2773913 L27.6036036,7.46804348 C27.6468468,7.49673913 27.6828829,7.53978261 27.7117117,7.60434783 L29.4846847,11.1554348 C29.5783784,11.3419565 29.7225225,11.385 29.9243243,11.385 L30.9189189,11.385 C30.9837838,11.385 30.9981982,11.3276087 30.9693694,11.2773913 L28.7855856,7.20978261" id="Fill-6" fill="#161617" sketch:type="MSShapeGroup"></path>
                <path d="M19.8630631,10.4308696 L19.6756757,10.4308696 C19.4378378,10.4308696 19.3801802,10.3376087 19.3801802,10.1582609 L19.3801802,3.88108696 C19.3801802,3.80934783 19.3441441,3.77347826 19.2864865,3.77347826 L16.1657658,3.77347826 C16.0864865,3.77347826 16.0432432,3.82369565 16.0432432,3.88108696 L16.0432432,4.43347826 C16.0432432,6.27 15.9351351,8.6373913 14.9405405,10.4308696 L14.5945946,10.4308696 C14.5009009,10.4308696 14.4720721,10.473913 14.4720721,10.5528261 L14.4720721,12.7695652 C14.4720721,12.8484783 14.5297297,12.8771739 14.5801802,12.8771739 L15.3297297,12.8771739 C15.4954955,12.8771739 15.5603604,12.7552174 15.5603604,12.6476087 L15.5603604,11.385 L18.8972973,11.385 L18.8972973,12.7695652 C18.8972973,12.8269565 18.9405405,12.8771739 19.0054054,12.8771739 L19.7981982,12.8771739 C19.8918919,12.8771739 19.9855856,12.7982609 19.9855856,12.6476087 L19.9855856,10.5528261 C19.9855856,10.473913 19.9351351,10.4308696 19.8630631,10.4308696 L19.8630631,10.4308696 Z M18.1765766,10.4308696 L15.9207207,10.4308696 C16.7135135,9.11086957 17.0234234,7.61869565 17.1315315,5.79652174 C17.1675676,5.40195652 17.181982,4.99304348 17.181982,4.73478261 L18.1765766,4.73478261 L18.1765766,10.4308696 L18.1765766,10.4308696 Z" id="Fill-7" fill="#161617" sketch:type="MSShapeGroup"></path>
                <path d="M23.0342342,3.59413043 C21.354955,3.59413043 20.6054054,5.66021739 20.6054054,7.90565217 C20.6054054,10.2013043 21.6648649,11.5715217 23.2216216,11.5715217 C23.9855856,11.5715217 24.6558559,11.2773913 25.0018018,11.0693478 C25.0594595,11.0406522 25.0810811,10.9904348 25.0594595,10.9330435 L24.9369369,10.4165217 C24.9225225,10.3519565 24.8936937,10.3232609 24.8144144,10.3232609 C24.7495495,10.3232609 24.3027027,10.4882609 23.6612613,10.4882609 C22.4576577,10.4882609 21.9027027,9.47673913 21.9027027,8.13521739 L21.9027027,7.77652174 C21.9027027,7.77652174 22.5081081,7.84826087 22.8684685,7.84826087 L25.1387387,7.84826087 L25.1387387,7.20978261 C25.1387387,4.85673913 24.2810811,3.59413043 23.0342342,3.59413043 L23.0342342,3.59413043 Z M22.8684685,6.89413043 C22.5081081,6.89413043 21.9459459,6.95152174 21.9459459,6.95152174 C21.9459459,6.95152174 21.9459459,6.72195652 21.981982,6.47804348 C22.1189189,5.18673913 22.4432432,4.53391304 22.990991,4.53391304 C23.4882883,4.53391304 23.7981982,5.20826087 23.8774775,6.37043478 C23.8918919,6.61434783 23.8918919,6.89413043 23.8918919,6.89413043 L22.8684685,6.89413043 L22.8684685,6.89413043 Z" id="Fill-8" fill="#161617" sketch:type="MSShapeGroup"></path>
                <path d="M30.9981982,30.3743478 L33.563964,30.3743478 C35.9207207,30.3743478 37.8810811,29.0543478 37.8810811,25.9193478 C37.8810811,22.8847826 35.9495495,21.8015217 33.427027,21.8015217 L32.7855856,21.8015217 L32.7855856,17.1384783 C32.7855856,17.0667391 32.7135135,16.9734783 32.6126126,16.9734783 L30.8612613,16.9734783 C30.7171171,16.9734783 30.6666667,17.0452174 30.6666667,17.16 L30.6666667,30.1447826 C30.6666667,30.3097826 30.7675676,30.3743478 30.9981982,30.3743478 L30.9981982,30.3743478 Z M32.7855856,23.4371739 L33.3837838,23.4371739 C34.954955,23.4371739 35.8702703,24.4773913 35.8702703,25.9408696 C35.8702703,27.7558696 34.9333333,28.7745652 33.4774775,28.7745652 L32.7855856,28.7745652 L32.7855856,23.4371739 L32.7855856,23.4371739 Z" id="Fill-9" fill="#161617" sketch:type="MSShapeGroup"></path>
                <g id="Group-13">
                    <mask id="mask-4" sketch:name="Clip 11" fill="white">
                        <use xlink:href="#path-3"></use>
                    </mask>
                    <g id="Clip-11"></g>
                    <path d="M27.9711712,16.9663043 L26.2702703,16.9663043 C26.1261261,16.9663043 26.0468468,17.073913 26.0468468,17.1528261 L26.0468468,22.2678261 L22.8900901,22.2678261 L22.8900901,17.1528261 C22.8900901,17.0236957 22.8396396,16.9663043 22.7027027,16.9663043 L20.9945946,16.9663043 C20.8576577,16.9663043 20.7783784,17.0452174 20.7783784,17.1528261 L20.7783784,30.1663043 C20.7783784,30.2954348 20.8288288,30.3743478 20.9657658,30.3743478 L22.7027027,30.3743478 C22.8108108,30.3743478 22.8900901,30.2954348 22.8900901,30.1663043 L22.8900901,23.9536957 L26.0468468,23.9536957 L26.0468468,30.1663043 C26.0468468,30.2954348 26.1261261,30.3743478 26.2702703,30.3743478 L27.9711712,30.3743478 C28.1081081,30.3743478 28.1585586,30.2667391 28.1585586,30.1663043 L28.1585586,17.1528261 C28.1585586,17.0452174 28.0792793,16.9663043 27.9711712,16.9663043" id="Fill-10" fill="#161617" sketch:type="MSShapeGroup" mask="url(#mask-4)"></path>
                    <path d="M9.4990991,28.6884783 L9.16756757,28.6884783 C8.75675676,28.6884783 8.64864865,28.5306522 8.64864865,28.2078261 L8.64864865,17.1528261 C8.64864865,17.0236957 8.59099099,16.9663043 8.48288288,16.9663043 L2.99099099,16.9663043 C2.85405405,16.9663043 2.77477477,17.0452174 2.77477477,17.1528261 L2.77477477,18.1213043 C2.77477477,21.3567391 2.58018018,25.5319565 0.821621622,28.6884783 L0.223423423,28.6884783 C0.0576576577,28.6884783 0,28.7745652 0,28.9036957 L0,32.8134783 C0,32.9497826 0.108108108,33 0.194594595,33 L1.51351351,33 C1.80900901,33 1.92432432,32.7847826 1.92432432,32.5982609 L1.92432432,30.3743478 L7.7981982,30.3743478 L7.7981982,32.8134783 C7.7981982,32.921087 7.87747748,33 7.98558559,33 L9.39099099,33 C9.54954955,33 9.71531532,32.8708696 9.71531532,32.5982609 L9.71531532,28.9036957 C9.71531532,28.7745652 9.63603604,28.6884783 9.4990991,28.6884783 L9.4990991,28.6884783 Z M6.52972973,28.6884783 L2.55135135,28.6884783 C3.95675676,26.3641304 4.5045045,23.7384783 4.69189189,20.5245652 C4.74954955,19.8286957 4.77837838,19.1113043 4.77837838,18.6521739 L6.52972973,18.6521739 L6.52972973,28.6884783 L6.52972973,28.6884783 Z" id="Fill-12" fill="#161617" sketch:type="MSShapeGroup" mask="url(#mask-4)"></path>
                </g>
                <path d="M15.0846847,16.6506522 C12.1225225,16.6506522 10.8036036,20.2878261 10.8036036,24.2478261 C10.8036036,28.2867391 12.6702703,30.6971739 15.4162162,30.6971739 C16.763964,30.6971739 17.9459459,30.1878261 18.5441441,29.8147826 C18.6522523,29.7645652 18.6810811,29.6784783 18.6522523,29.5780435 L18.436036,28.6669565 C18.4072072,28.5593478 18.3567568,28.5019565 18.2198198,28.5019565 C18.1045045,28.5019565 17.3117117,28.796087 16.1873874,28.796087 C14.0756757,28.796087 13.0810811,27.0097826 13.0810811,24.6495652 L13.0810811,24.0182609 C13.0810811,24.0182609 14.154955,24.1402174 14.7891892,24.1402174 L18.7963964,24.1402174 L18.7963964,23.013913 C18.7963964,18.8673913 17.2828829,16.6506522 15.0846847,16.6506522 L15.0846847,16.6506522 Z M14.7891892,22.4543478 C14.154955,22.4543478 13.1675676,22.5619565 13.1675676,22.5619565 C13.1675676,22.5619565 13.1675676,22.1602174 13.218018,21.7297826 C13.4702703,19.4556522 14.0468468,18.3078261 15.0054054,18.3078261 C15.8846847,18.3078261 16.4324324,19.4843478 16.5693694,21.5432609 C16.5981982,21.9736957 16.5981982,22.4543478 16.5981982,22.4543478 L14.7891892,22.4543478 L14.7891892,22.4543478 Z" id="Fill-14" fill="#161617" sketch:type="MSShapeGroup"></path>
                <path d="M45.636036,16.9663043 L39.8774775,16.9663043 C39.7405405,16.9663043 39.6612613,17.0452174 39.6612613,17.1528261 L39.6612613,30.1663043 C39.6612613,30.2954348 39.7117117,30.3743478 39.8486486,30.3743478 L41.5783784,30.3743478 C41.6936937,30.3743478 41.772973,30.2954348 41.772973,30.1663043 L41.772973,18.6665217 L45.636036,18.6665217 C45.7225225,18.6665217 45.8306306,18.6163043 45.8306306,18.48 L45.8306306,17.1528261 C45.8306306,17.0452174 45.7513514,16.9663043 45.636036,16.9663043" id="Fill-15" fill="#161617" sketch:type="MSShapeGroup"></path>
                <path d="M54.1765766,16.9663043 L52.6054054,16.9663043 C52.5117117,16.9663043 52.4396396,17.0165217 52.4108108,17.081087 C52.3963964,17.0954348 49.1891892,25.6180435 49.1891892,25.6180435 L48.9801802,26.2995652 L48.9801802,17.1528261 C48.9801802,17.0236957 48.9225225,16.9663043 48.7855856,16.9663043 L47.1711712,16.9663043 C47.0342342,16.9663043 46.9837838,17.0595652 46.9837838,17.1528261 L46.9837838,30.03 C46.9837838,30.2954348 47.0414414,30.3743478 47.1783784,30.3743478 L48.7855856,30.3743478 C48.8648649,30.3743478 48.9297297,30.3384783 48.9585586,30.2667391 L52.2522523,21.6580435 L52.3891892,21.2132609 L52.3891892,30.1663043 C52.3891892,30.2954348 52.4684685,30.3743478 52.6054054,30.3743478 L54.1765766,30.3743478 C54.3135135,30.3743478 54.3711712,30.2667391 54.3711712,30.03 L54.3711712,17.081087 C54.3711712,17.0093478 54.2846847,16.9663043 54.1765766,16.9663043" id="Fill-16" fill="#161617" sketch:type="MSShapeGroup"></path>
                <path d="M78.3711712,16.9304348 L77.2612613,16.9304348 L77.2612613,23.6380435 C77.2612613,24.8432609 76.7351351,25.5319565 75.163964,25.8834783 L65.1315315,28.6454348 C65.1315315,28.6454348 64.2738739,28.8678261 64.2738739,28.1145652 C64.2738739,27.4904348 65.0378378,27.4115217 65.1603604,27.2967391 L65.1099099,27.3182609 L74.2630631,23.7815217 C75.0126126,23.3726087 75.6324324,22.4328261 75.6324324,21.693913 L75.6324324,11.1123913 C75.6324324,9.44086957 73.9531532,10.0147826 73.5927928,10.23 C73.1891892,10.4595652 62.9837838,16.0121739 62.9837838,16.0121739 C62.2342342,16.421087 61.6216216,17.3680435 61.6216216,18.1069565 L61.6216216,28.6454348 C61.6216216,29.3843478 62.7099099,30.3671739 63.409009,30.3743478 L78.3711712,30.3743478 C79.2648649,30.3743478 80,29.7717391 80,29.0328261 L80,18.2791304 C80,17.5330435 79.2648649,16.9304348 78.3711712,16.9304348 L78.3711712,16.9304348 Z M71.1351351,16.1269565 C71.8414414,15.6678261 72.5117117,15.8184783 72.6342342,16.4569565 C72.7567568,17.0954348 72.3459459,17.906087 71.6396396,18.3652174 C70.9333333,18.8171739 70.2630631,18.6736957 70.1405405,18.0280435 C70.0252252,17.3895652 70.4288288,16.578913 71.1351351,16.1269565 L71.1351351,16.1269565 Z" id="Fill-17" fill="#F37A1F" sketch:type="MSShapeGroup"></path>
            </g>
        </g>
    </g>
</svg>