<?xml version="1.0" encoding="UTF-8"?>
<svg width="21px" height="21px" viewBox="0 0 21 21" version="1.1" xmlns="http://www.w3.org/2000/svg" xmlns:xlink="http://www.w3.org/1999/xlink">
    <!-- Generator: Sketch 41.2 (35397) - http://www.bohemiancoding.com/sketch -->
    <title>Shape</title>
    <desc>Created with Sketch.</desc>
    <defs></defs>
    <g id="Page-1" stroke="none" stroke-width="1" fill="none" fill-rule="evenodd">
        <g id="jsi_homepage" transform="translate(-585.000000, -215.000000)" fill="#FDC073">
            <g id="Group-8" transform="translate(585.000000, 215.000000)">
                <path d="M20.769231,10.636118 C20.769231,12.8987379 20.108924,14.9337437 18.7883115,16.7411362 C17.4676982,18.5485278 15.7617188,19.799279 13.6703724,20.4933895 C13.4269832,20.5384612 13.2489485,20.5069111 13.1362681,20.3987377 C13.0235878,20.2905651 12.967248,20.1553485 12.967248,19.9930888 L12.967248,17.1400239 C12.967248,16.2656251 12.7328727,15.6256008 12.2641228,15.2199519 C12.7779443,15.1658656 13.2399338,15.0847353 13.6500905,14.9765627 C14.0602463,14.8683893 14.4839245,14.692608 14.9211235,14.4492188 C15.3583233,14.2058296 15.7234075,13.9060998 16.0163761,13.5500303 C16.3093447,13.19396 16.548227,12.7207032 16.7330229,12.1302583 C16.9178189,11.5398134 17.0102165,10.8614787 17.0102165,10.0952525 C17.0102165,9.00450762 16.6541469,8.07602169 15.942007,7.3097955 C16.2755412,6.489483 16.2394833,5.57001173 15.8338344,4.5513825 C15.5814306,4.47025223 15.2163464,4.51983162 14.7385818,4.70011985 C14.2608173,4.88040888 13.8461537,5.07872562 13.4945911,5.29507246 L12.9807696,5.61959112 C12.1424278,5.38521658 11.2770436,5.2680285 10.3846155,5.2680285 C9.49218738,5.2680285 8.62680323,5.38521658 7.78846142,5.61959112 C7.644231,5.52043235 7.45267465,5.39873815 7.21379238,5.25450692 C6.97491012,5.1102765 6.59855781,4.93674865 6.08473546,4.73392419 C5.57091312,4.53109973 5.1832935,4.47025223 4.921875,4.5513825 C4.52524073,5.57001173 4.49368985,6.489483 4.82722315,7.3097955 C4.11508408,8.07602169 3.75901454,9.00450762 3.75901454,10.0952525 C3.75901454,10.8614787 3.85141212,11.5375599 4.03620808,12.1234979 C4.22100323,12.709435 4.45763204,13.1826927 4.74609369,13.5432691 C5.03455535,13.9038464 5.39738608,14.2058296 5.83458508,14.4492188 C6.27178488,14.692608 6.69546312,14.8683893 7.10561896,14.9765627 C7.51577562,15.0847353 7.97776431,15.1658656 8.49158665,15.2199519 C8.13100938,15.5444714 7.91015642,16.0087143 7.82902615,16.61268 C7.63972327,16.7028249 7.43689881,16.7704328 7.22055277,16.8155045 C7.00420673,16.8605769 6.74729596,16.8831132 6.44981965,16.8831132 C6.15234415,16.8831132 5.85712131,16.7862078 5.56415273,16.592398 C5.27118415,16.3985874 5.02103377,16.116887 4.81370158,15.7472958 C4.642428,15.4588342 4.4238285,15.2244588 4.15790227,15.0441706 C3.89197685,14.8638824 3.66887042,14.755709 3.48858138,14.7196512 L3.21814904,14.6790864 C3.02884615,14.6790864 2.89813731,14.6993692 2.82602169,14.7399339 C2.75390608,14.7804987 2.73136985,14.8323315 2.75841381,14.8954325 C2.78545696,14.9585334 2.82602169,15.0216344 2.880108,15.0847353 C2.93419431,15.1478363 2.99278835,15.2019234 3.05588931,15.2469951 L3.15054115,15.3146038 C3.34885788,15.4047479 3.54492196,15.5760215 3.73873177,15.8284253 C3.93254238,16.0808292 4.07451935,16.3106968 4.16466346,16.518029 L4.29988004,16.8290268 C4.41706731,17.1715748 4.61538485,17.4487683 4.89483185,17.6606067 C5.17427885,17.8724458 5.47626208,18.0076623 5.80078154,18.0662564 C6.12530019,18.1248496 6.43855154,18.1564005 6.74053477,18.1609074 C7.042518,18.1654143 7.29266838,18.1496393 7.49098592,18.1135815 L7.801983,18.0594952 C7.801983,18.4020432 7.80423646,18.8031852 7.80874419,19.2629204 C7.81325112,19.7226564 7.81550458,19.9660456 7.81550458,19.9930888 C7.81550458,20.1553485 7.75691135,20.2905651 7.63972327,20.3987377 C7.522536,20.5069111 7.34224777,20.5384612 7.09885777,20.4933895 C5.00751219,19.799279 3.30153277,18.5485278 1.9809195,16.7411362 C0.660306231,14.9337437 0,12.8987379 0,10.636118 C0,8.75210377 0.464242962,7.01457346 1.39272808,5.42352785 C2.321214,3.83248223 3.58097977,2.57271646 5.17202538,1.64423054 C6.763071,0.715745423 8.50060131,0.251502462 10.3846155,0.251502462 C12.2686297,0.251502462 14.00616,0.715745423 15.5972056,1.64423054 C17.1882512,2.57271646 18.448017,3.83248223 19.3765021,5.42352785 C20.304988,7.01457346 20.769231,8.75210377 20.769231,10.636118 Z" id="Shape"></path>
            </g>
        </g>
    </g>
</svg>